<?xml version="1.0" standalone="no"?>
 <!DOCTYPE svg PUBLIC "-//W3C//DTD SVG 1.1//EN" 
 "http://www.w3.org/Graphics/SVG/1.1/DTD/svg11.dtd"> 
<svg
  xmlns:svg="http://www.w3.org/2000/svg"
  xmlns="http://www.w3.org/2000/svg"
  xmlns:xlink="http://www.w3.org/1999/xlink"
  version="1.1"
  width="297.0022mm" height="210.0072mm" viewBox="0.0000 0.0000 297.0022 210.0072">
<title>SVG Image created as EasyDroidVR_PCB-B_Silkscreen.svg date 2026/03/20 20:39:07 </title>
  <desc>Image generated by PCBNEW </desc>
<g style="fill:#000000; fill-opacity:1.0000;stroke:#000000; stroke-opacity:1.0000;
stroke-linecap:round; stroke-linejoin:round;"
 transform="translate(0 0) scale(1 1)">
</g>
<g style="fill:none; 
stroke:#000000; stroke-width:0.1500; stroke-opacity:1; 
stroke-linecap:round; stroke-linejoin:round;">
<g transform="rotate(-180.000000 112.9600 149.9025)">
<text x="112.9600" y="150.4025"
transform="scale(-1 1) translate(-225.920000 0)"
textLength="1.9643" font-size="1.3333" lengthAdjust="spacingAndGlyphs"
text-anchor="middle" opacity="0" stroke-opacity="0">J1</text>
</g>
<g class="stroked-text"><desc>J1</desc>
<path d="M112.6267 150.4477
L112.6267 149.7334
" />
<path d="M112.6267 149.7334
L112.5790 149.5905
" />
<path d="M112.5790 149.5905
L112.4838 149.4953
" />
<path d="M112.4838 149.4953
L112.3410 149.4477
" />
<path d="M112.3410 149.4477
L112.2457 149.4477
" />
<path d="M113.6267 149.4477
L113.0552 149.4477
" />
<path d="M113.3410 149.4477
L113.3410 150.4477
" />
<path d="M113.3410 150.4477
L113.2457 150.3048
" />
<path d="M113.2457 150.3048
L113.1505 150.2096
" />
<path d="M113.1505 150.2096
L113.0552 150.1620
" />
</g><g transform="rotate(-90.000000 128.9600 93.5525)">
<text x="128.9600" y="94.0525"
transform="scale(-1 1) translate(-257.920000 0)"
textLength="1.9643" font-size="1.3333" lengthAdjust="spacingAndGlyphs"
text-anchor="middle" opacity="0" stroke-opacity="0">J8</text>
</g>
<g class="stroked-text"><desc>J8</desc>
<path d="M128.4148 93.2192
L129.1291 93.2192
" />
<path d="M129.1291 93.2192
L129.2720 93.1715
" />
<path d="M129.2720 93.1715
L129.3672 93.0763
" />
<path d="M129.3672 93.0763
L129.4148 92.9335
" />
<path d="M129.4148 92.9335
L129.4148 92.8382
" />
<path d="M128.8434 93.8382
L128.7958 93.7430
" />
<path d="M128.7958 93.7430
L128.7482 93.6954
" />
<path d="M128.7482 93.6954
L128.6529 93.6477
" />
<path d="M128.6529 93.6477
L128.6053 93.6477
" />
<path d="M128.6053 93.6477
L128.5101 93.6954
" />
<path d="M128.5101 93.6954
L128.4624 93.7430
" />
<path d="M128.4624 93.7430
L128.4148 93.8382
" />
<path d="M128.4148 93.8382
L128.4148 94.0287
" />
<path d="M128.4148 94.0287
L128.4624 94.1239
" />
<path d="M128.4624 94.1239
L128.5101 94.1715
" />
<path d="M128.5101 94.1715
L128.6053 94.2192
" />
<path d="M128.6053 94.2192
L128.6529 94.2192
" />
<path d="M128.6529 94.2192
L128.7482 94.1715
" />
<path d="M128.7482 94.1715
L128.7958 94.1239
" />
<path d="M128.7958 94.1239
L128.8434 94.0287
" />
<path d="M128.8434 94.0287
L128.8434 93.8382
" />
<path d="M128.8434 93.8382
L128.8910 93.7430
" />
<path d="M128.8910 93.7430
L128.9386 93.6954
" />
<path d="M128.9386 93.6954
L129.0339 93.6477
" />
<path d="M129.0339 93.6477
L129.2243 93.6477
" />
<path d="M129.2243 93.6477
L129.3196 93.6954
" />
<path d="M129.3196 93.6954
L129.3672 93.7430
" />
<path d="M129.3672 93.7430
L129.4148 93.8382
" />
<path d="M129.4148 93.8382
L129.4148 94.0287
" />
<path d="M129.4148 94.0287
L129.3672 94.1239
" />
<path d="M129.3672 94.1239
L129.3196 94.1715
" />
<path d="M129.3196 94.1715
L129.2243 94.2192
" />
<path d="M129.2243 94.2192
L129.0339 94.2192
" />
<path d="M129.0339 94.2192
L128.9386 94.1715
" />
<path d="M128.9386 94.1715
L128.8910 94.1239
" />
<path d="M128.8910 94.1239
L128.8434 94.0287
" />
</g></g>
<g style="fill:none; 
stroke:#000000; stroke-width:0.1200; stroke-opacity:1; 
stroke-linecap:round; stroke-linejoin:round;">
<path d="M115.3600 148.8025 A11.9105 11.9105 0.0 1 0 115.3600 142.6025" />
<path d="M116.3600 146.2025
L116.3600 145.2025
" />
<path d="M115.8600 145.7025
L116.8600 145.7025
" />
<path d="M119.9100 54.5525
L119.9100 132.5525
" />
<path d="M140.0100 54.5525
L119.9100 54.5525
" />
<path d="M119.9100 132.5525
L140.0100 132.5525
" />
<path d="M140.0100 132.5525
L140.0100 54.5525
" />
</g> 
</svg>
