<?xml version="1.0" standalone="no"?>
 <!DOCTYPE svg PUBLIC "-//W3C//DTD SVG 1.1//EN" 
 "http://www.w3.org/Graphics/SVG/1.1/DTD/svg11.dtd"> 
<svg
  xmlns:svg="http://www.w3.org/2000/svg"
  xmlns="http://www.w3.org/2000/svg"
  xmlns:xlink="http://www.w3.org/1999/xlink"
  version="1.1"
  width="297.0022mm" height="210.0072mm" viewBox="0.0000 0.0000 297.0022 210.0072">
<title>SVG Image created as EasyDroidVR_PCB-F_Paste.svg date 2026/03/20 20:39:07 </title>
  <desc>Image generated by PCBNEW </desc>
<g style="fill:#000000; fill-opacity:1.0000;stroke:#000000; stroke-opacity:1.0000;
stroke-linecap:round; stroke-linejoin:round;"
 transform="translate(0 0) scale(1 1)">
<path style="fill:#000000; fill-opacity:1.0000; stroke:none;fill-rule:evenodd;"
d="M 86.7000,139.7500
86.6043,139.7310
86.5232,139.6768
86.4690,139.5957
86.4500,139.5000
86.4500,136.7000
86.4690,136.6043
86.5232,136.5232
86.6043,136.4690
86.7000,136.4500
88.7000,136.4500
88.7957,136.4690
88.8768,136.5232
88.9310,136.6043
88.9500,136.7000
88.9500,139.5000
88.9310,139.5957
88.8768,139.6768
88.7957,139.7310
88.7000,139.7500
Z" /> 
<path style="fill:#000000; fill-opacity:1.0000; stroke:none;fill-rule:evenodd;"
d="M 79.9000,139.7500
79.8043,139.7310
79.7232,139.6768
79.6690,139.5957
79.6500,139.5000
79.6500,136.7000
79.6690,136.6043
79.7232,136.5232
79.8043,136.4690
79.9000,136.4500
81.9000,136.4500
81.9957,136.4690
82.0768,136.5232
82.1310,136.6043
82.1500,136.7000
82.1500,139.5000
82.1310,139.5957
82.0768,139.6768
81.9957,139.7310
81.9000,139.7500
Z" /> 
<path style="fill:#000000; fill-opacity:1.0000; stroke:none;fill-rule:evenodd;"
d="M 88.9100,154.0248
88.8944,154.1318
88.8402,154.2428
88.7529,154.3300
88.6420,154.3843
88.5350,154.3998
87.2850,154.3998
87.1780,154.3843
87.0671,154.3300
86.9798,154.2428
86.9256,154.1318
86.9100,154.0248
86.9100,153.2748
86.9256,153.1678
86.9798,153.0569
87.0671,152.9697
87.1780,152.9154
87.2850,152.8998
88.5350,152.8998
88.6420,152.9154
88.7529,152.9697
88.8402,153.0569
88.8944,153.1678
88.9100,153.2748
Z" /> 
<path style="fill:#000000; fill-opacity:1.0000; stroke:none;fill-rule:evenodd;"
d="M 88.9100,151.7248
88.8944,151.8319
88.8402,151.9428
88.7529,152.0300
88.6420,152.0843
88.5350,152.0998
87.2850,152.0998
87.1780,152.0843
87.0671,152.0300
86.9798,151.9428
86.9256,151.8319
86.9100,151.7248
86.9100,150.9748
86.9256,150.8678
86.9798,150.7569
87.0671,150.6697
87.1780,150.6154
87.2850,150.5998
88.5350,150.5998
88.6420,150.6154
88.7529,150.6697
88.8402,150.7569
88.8944,150.8678
88.9100,150.9748
Z" /> 
<path style="fill:#000000; fill-opacity:1.0000; stroke:none;fill-rule:evenodd;"
d="M 82.6100,152.7498
82.5986,152.8561
82.5488,152.9895
82.4636,153.1034
82.3496,153.1887
82.2163,153.2384
82.1100,153.2498
81.1100,153.2498
81.0037,153.2384
80.8704,153.1887
80.7564,153.1034
80.6712,152.9895
80.6214,152.8561
80.6100,152.7498
80.6100,149.9498
80.6214,149.8436
80.6712,149.7102
80.7564,149.5963
80.8704,149.5110
81.0037,149.4613
81.1100,149.4498
82.1100,149.4498
82.2163,149.4613
82.3496,149.5110
82.4636,149.5963
82.5488,149.7102
82.5986,149.8436
82.6100,149.9498
Z" /> 
<path style="fill:#000000; fill-opacity:1.0000; stroke:none;fill-rule:evenodd;"
d="M 88.9100,149.4248
88.8944,149.5318
88.8402,149.6428
88.7529,149.7300
88.6420,149.7843
88.5350,149.7998
87.2850,149.7998
87.1780,149.7843
87.0671,149.7300
86.9798,149.6428
86.9256,149.5318
86.9100,149.4248
86.9100,148.6748
86.9256,148.5678
86.9798,148.4569
87.0671,148.3697
87.1780,148.3154
87.2850,148.2998
88.5350,148.2998
88.6420,148.3154
88.7529,148.3697
88.8402,148.4569
88.8944,148.5678
88.9100,148.6748
Z" /> 
</g> 
</svg>
