%TF.GenerationSoftware,KiCad,Pcbnew,9.0.1*%
%TF.CreationDate,2026-03-20T20:38:18+03:00*%
%TF.ProjectId,EasyDroidVR_PCB,45617379-4472-46f6-9964-56525f504342,rev?*%
%TF.SameCoordinates,Original*%
%TF.FileFunction,Legend,Bot*%
%TF.FilePolarity,Positive*%
%FSLAX46Y46*%
G04 Gerber Fmt 4.6, Leading zero omitted, Abs format (unit mm)*
G04 Created by KiCad (PCBNEW 9.0.1) date 2026-03-20 20:38:18*
%MOMM*%
%LPD*%
G01*
G04 APERTURE LIST*
%ADD10C,0.150000*%
%ADD11C,0.120000*%
G04 APERTURE END LIST*
D10*
X112626666Y-150447680D02*
X112626666Y-149733395D01*
X112626666Y-149733395D02*
X112579047Y-149590538D01*
X112579047Y-149590538D02*
X112483809Y-149495300D01*
X112483809Y-149495300D02*
X112340952Y-149447680D01*
X112340952Y-149447680D02*
X112245714Y-149447680D01*
X113626666Y-149447680D02*
X113055238Y-149447680D01*
X113340952Y-149447680D02*
X113340952Y-150447680D01*
X113340952Y-150447680D02*
X113245714Y-150304823D01*
X113245714Y-150304823D02*
X113150476Y-150209585D01*
X113150476Y-150209585D02*
X113055238Y-150161966D01*
X128414819Y-93219166D02*
X129129104Y-93219166D01*
X129129104Y-93219166D02*
X129271961Y-93171547D01*
X129271961Y-93171547D02*
X129367200Y-93076309D01*
X129367200Y-93076309D02*
X129414819Y-92933452D01*
X129414819Y-92933452D02*
X129414819Y-92838214D01*
X128843390Y-93838214D02*
X128795771Y-93742976D01*
X128795771Y-93742976D02*
X128748152Y-93695357D01*
X128748152Y-93695357D02*
X128652914Y-93647738D01*
X128652914Y-93647738D02*
X128605295Y-93647738D01*
X128605295Y-93647738D02*
X128510057Y-93695357D01*
X128510057Y-93695357D02*
X128462438Y-93742976D01*
X128462438Y-93742976D02*
X128414819Y-93838214D01*
X128414819Y-93838214D02*
X128414819Y-94028690D01*
X128414819Y-94028690D02*
X128462438Y-94123928D01*
X128462438Y-94123928D02*
X128510057Y-94171547D01*
X128510057Y-94171547D02*
X128605295Y-94219166D01*
X128605295Y-94219166D02*
X128652914Y-94219166D01*
X128652914Y-94219166D02*
X128748152Y-94171547D01*
X128748152Y-94171547D02*
X128795771Y-94123928D01*
X128795771Y-94123928D02*
X128843390Y-94028690D01*
X128843390Y-94028690D02*
X128843390Y-93838214D01*
X128843390Y-93838214D02*
X128891009Y-93742976D01*
X128891009Y-93742976D02*
X128938628Y-93695357D01*
X128938628Y-93695357D02*
X129033866Y-93647738D01*
X129033866Y-93647738D02*
X129224342Y-93647738D01*
X129224342Y-93647738D02*
X129319580Y-93695357D01*
X129319580Y-93695357D02*
X129367200Y-93742976D01*
X129367200Y-93742976D02*
X129414819Y-93838214D01*
X129414819Y-93838214D02*
X129414819Y-94028690D01*
X129414819Y-94028690D02*
X129367200Y-94123928D01*
X129367200Y-94123928D02*
X129319580Y-94171547D01*
X129319580Y-94171547D02*
X129224342Y-94219166D01*
X129224342Y-94219166D02*
X129033866Y-94219166D01*
X129033866Y-94219166D02*
X128938628Y-94171547D01*
X128938628Y-94171547D02*
X128891009Y-94123928D01*
X128891009Y-94123928D02*
X128843390Y-94028690D01*
D11*
%TO.C,J1*%
X115360001Y-142602500D02*
G75*
G02*
X115360001Y-148802500I11499999J-3100000D01*
G01*
X116360000Y-146202500D02*
X116360000Y-145202500D01*
X115860000Y-145702500D02*
X116860000Y-145702500D01*
%TO.C,J8*%
X119910000Y-54552500D02*
X119910000Y-132552500D01*
X140010000Y-54552500D02*
X119910000Y-54552500D01*
X119910000Y-132552500D02*
X140010000Y-132552500D01*
X140010000Y-132552500D02*
X140010000Y-54552500D01*
%TD*%
M02*
