<?xml version="1.0" standalone="no"?>
 <!DOCTYPE svg PUBLIC "-//W3C//DTD SVG 1.1//EN" 
 "http://www.w3.org/Graphics/SVG/1.1/DTD/svg11.dtd"> 
<svg
  xmlns:svg="http://www.w3.org/2000/svg"
  xmlns="http://www.w3.org/2000/svg"
  xmlns:xlink="http://www.w3.org/1999/xlink"
  version="1.1"
  width="297.0022mm" height="210.0072mm" viewBox="0.0000 0.0000 297.0022 210.0072">
<title>SVG Image created as EasyDroidVR_PCB-B_Mask.svg date 2026/03/20 20:39:07 </title>
  <desc>Image generated by PCBNEW </desc>
<g style="fill:#000000; fill-opacity:1.0000;stroke:#000000; stroke-opacity:1.0000;
stroke-linecap:round; stroke-linejoin:round;"
 transform="translate(0 0) scale(1 1)">
</g>
<g style="fill:#000000; fill-opacity:1.0000; stroke:none;">
<circle cx="97.0100" cy="84.6125" r="0.8000" /> 
<circle cx="97.0100" cy="74.4525" r="0.8000" /> 
</g>
<g style="fill:#000000; fill-opacity:1.0000; stroke:none;">
<circle cx="103.1600" cy="84.6325" r="0.8000" /> 
<circle cx="103.1600" cy="74.4725" r="0.8000" /> 
</g>
<g style="fill:#000000; fill-opacity:1.0000; stroke:none;">
<circle cx="84.0005" cy="63.0575" r="0.8000" /> 
</g>
<g style="fill:#000000; fill-opacity:1.0000; stroke:none;">
<circle cx="94.1605" cy="63.0575" r="0.8000" /> 
<circle cx="83.8605" cy="74.9575" r="0.8000" /> 
</g>
<g style="fill:#000000; fill-opacity:1.0000; stroke:none;">
<circle cx="94.0205" cy="74.9575" r="0.8000" /> 
<circle cx="84.0105" cy="56.9975" r="0.8000" /> 
</g>
<g style="fill:#000000; fill-opacity:1.0000; stroke:none;">
<circle cx="94.1705" cy="56.9975" r="0.8000" /> 
<circle cx="83.8805" cy="68.9575" r="0.8000" /> 
</g>
<g style="fill:#000000; fill-opacity:1.0000; stroke:none;">
<circle cx="94.0405" cy="68.9575" r="0.8000" /> 
<circle cx="84.0105" cy="51.0075" r="0.8000" /> 
</g>
<g style="fill:#000000; fill-opacity:1.0000; stroke:none;">
<circle cx="94.1705" cy="51.0075" r="0.8000" /> 
<circle cx="119.2800" cy="39.4800" r="0.8500" /> 
</g>
<g style="fill:#000000; fill-opacity:1.0000; stroke:none;">
<circle cx="121.8200" cy="39.4800" r="0.8500" /> 
</g>
<g style="fill:#000000; fill-opacity:1.0000; stroke:none;">
<circle cx="124.3600" cy="39.4800" r="0.8500" /> 
<path style="fill:#000000; fill-opacity:1.0000; stroke:none;fill-rule:evenodd;"
d="M 126.0500,38.6300
127.7500,38.6300
127.7500,40.3300
126.0500,40.3300
Z" /> 
</g>
<g style="fill:#000000; fill-opacity:1.0000; stroke:none;">
<circle cx="88.6600" cy="100.9825" r="0.8500" /> 
</g>
<g style="fill:#000000; fill-opacity:1.0000; stroke:none;">
<circle cx="88.6600" cy="103.5225" r="0.8500" /> 
</g>
<g style="fill:#000000; fill-opacity:1.0000; stroke:none;">
<circle cx="88.6600" cy="106.0625" r="0.8500" /> 
</g>
<g style="fill:#000000; fill-opacity:1.0000; stroke:none;">
<circle cx="88.6600" cy="108.6025" r="0.8500" /> 
</g>
<g style="fill:#000000; fill-opacity:1.0000; stroke:none;">
<circle cx="88.6600" cy="111.1425" r="0.8500" /> 
</g>
<g style="fill:#000000; fill-opacity:1.0000; stroke:none;">
<circle cx="88.6600" cy="113.6825" r="0.8500" /> 
</g>
<g style="fill:#000000; fill-opacity:1.0000; stroke:none;">
<circle cx="88.6600" cy="116.2225" r="0.8500" /> 
</g>
<g style="fill:#000000; fill-opacity:1.0000; stroke:none;">
<circle cx="88.6600" cy="118.7625" r="0.8500" /> 
<path style="fill:#000000; fill-opacity:1.0000; stroke:none;fill-rule:evenodd;"
d="M 89.5100,120.4525
89.5100,122.1525
87.8100,122.1525
87.8100,120.4525
Z" /> 
</g>
<g style="fill:#000000; fill-opacity:1.0000; stroke:none;">
<circle cx="118.5000" cy="84.3500" r="0.8000" /> 
</g>
<g style="fill:#000000; fill-opacity:1.0000; stroke:none;">
<circle cx="118.5000" cy="74.1900" r="0.8000" /> 
<circle cx="114.4500" cy="84.3500" r="0.8000" /> 
</g>
<g style="fill:#000000; fill-opacity:1.0000; stroke:none;">
<circle cx="114.4500" cy="74.1900" r="0.8000" /> 
<circle cx="95.5605" cy="45.9575" r="0.6000" /> 
<path style="fill:#000000; fill-opacity:1.0000; stroke:none;fill-rule:evenodd;"
d="M 94.9605,43.8575
96.1605,43.8575
96.1605,45.0575
94.9605,45.0575
Z" /> 
</g>
<g style="fill:#000000; fill-opacity:1.0000; stroke:none;">
<circle cx="87.3605" cy="44.4575" r="0.8000" /> 
<path style="fill:#000000; fill-opacity:1.0000; stroke:none;fill-rule:evenodd;"
d="M 90.1605,43.6575
90.1605,45.2575
88.5605,45.2575
88.5605,43.6575
Z" /> 
</g>
<g style="fill:#000000; fill-opacity:1.0000; stroke:none;">
<circle cx="135.2600" cy="145.7025" r="1.0000" /> 
<path style="fill:#000000; fill-opacity:1.0000; stroke:none;fill-rule:evenodd;"
d="M 115.4600,144.7025
115.4600,146.7025
113.4600,146.7025
113.4600,144.7025
Z" /> 
<path style="fill:#000000; fill-opacity:1.0000; stroke:none;fill-rule:evenodd;"
d="M 134.9700,128.4900
134.9700,126.4900
136.9700,126.4900
136.9700,128.4900
Z" /> 
</g>
<g style="fill:#000000; fill-opacity:1.0000; stroke:none;">
<circle cx="129.9600" cy="57.5525" r="1.7500" /> 
<path style="fill:#000000; fill-opacity:1.0000; stroke:none;fill-rule:evenodd;"
d="M 131.7100,131.3025
128.2100,131.3025
128.2100,127.8025
131.7100,127.8025
Z" /> 
</g>
<g style="fill:#000000; fill-opacity:1.0000; stroke:none;">
<circle cx="129.9600" cy="65.2975" r="1.6000" /> 
</g>
<g style="fill:#000000; fill-opacity:1.0000; stroke:none;">
<circle cx="129.9600" cy="120.9075" r="1.6000" /> 
<path style="fill:#000000; fill-opacity:1.0000; stroke:none;fill-rule:evenodd;"
d="M 116.1000,89.0900
116.1000,87.3900
117.8000,87.3900
117.8000,89.0900
Z" /> 
</g>
<g style="fill:#000000; fill-opacity:1.0000; stroke:none;">
<circle cx="116.9500" cy="90.7800" r="0.8500" /> 
</g>
<g style="fill:#000000; fill-opacity:1.0000; stroke:none;">
<circle cx="116.9500" cy="93.3200" r="0.8500" /> 
</g>
<g style="fill:#000000; fill-opacity:1.0000; stroke:none;">
<circle cx="116.9500" cy="95.8600" r="0.8500" /> 
</g>
<g style="fill:#000000; fill-opacity:1.0000; stroke:none;">
<circle cx="116.9500" cy="98.4000" r="0.8500" /> 
<path style="fill:#000000; fill-opacity:1.0000; stroke:none;fill-rule:evenodd;"
d="M 107.3700,70.0525
105.6700,70.0525
105.6700,68.3525
107.3700,68.3525
Z" /> 
</g>
<g style="fill:#000000; fill-opacity:1.0000; stroke:none;">
<circle cx="109.0600" cy="69.2025" r="0.8500" /> 
</g>
<g style="fill:#000000; fill-opacity:1.0000; stroke:none;">
<circle cx="111.6000" cy="69.2025" r="0.8500" /> 
</g>
<g style="fill:#000000; fill-opacity:1.0000; stroke:none;">
<circle cx="114.1400" cy="69.2025" r="0.8500" /> 
</g>
<g style="fill:#000000; fill-opacity:1.0000; stroke:none;">
<circle cx="116.6800" cy="69.2025" r="0.8500" /> 
</g>
<g style="fill:#000000; fill-opacity:1.0000; stroke:none;">
<circle cx="119.2200" cy="69.2025" r="0.8500" /> 
</g>
<g style="fill:#000000; fill-opacity:1.0000; stroke:none;">
<circle cx="121.7600" cy="69.2025" r="0.8500" /> 
</g>
<g style="fill:#000000; fill-opacity:1.0000; stroke:none;">
<circle cx="124.3000" cy="69.2025" r="0.8500" /> 
</g>
<g style="fill:#000000; fill-opacity:1.0000; stroke:none;">
<circle cx="126.8400" cy="69.2025" r="0.8500" /> 
</g>
<g style="fill:#000000; fill-opacity:1.0000; stroke:none;">
<circle cx="129.3800" cy="69.2025" r="0.8500" /> 
<path style="fill:#000000; fill-opacity:1.0000; stroke:none;fill-rule:evenodd;"
d="M 124.0600,128.5025
124.0600,126.5025
126.0600,126.5025
126.0600,128.5025
Z" /> 
</g>
<g style="fill:#000000; fill-opacity:1.0000; stroke:none;">
<circle cx="141.0000" cy="111.9400" r="0.8500" /> 
</g>
<g style="fill:#000000; fill-opacity:1.0000; stroke:none;">
<circle cx="141.0000" cy="109.4000" r="0.8500" /> 
<path style="fill:#000000; fill-opacity:1.0000; stroke:none;fill-rule:evenodd;"
d="M 140.1500,107.7100
140.1500,106.0100
141.8500,106.0100
141.8500,107.7100
Z" /> 
<path style="fill:#000000; fill-opacity:1.0000; stroke:none;fill-rule:evenodd;"
d="M 127.0600,128.5025
127.0600,126.5025
129.0600,126.5025
129.0600,128.5025
Z" /> 
<path style="fill:#000000; fill-opacity:1.0000; stroke:none;fill-rule:evenodd;"
d="M 137.9500,151.3400
137.9500,149.3400
139.9500,149.3400
139.9500,151.3400
Z" /> 
</g>
<g style="fill:#000000; fill-opacity:1.0000; stroke:none;">
<circle cx="141.1500" cy="121.7900" r="0.8500" /> 
</g>
<g style="fill:#000000; fill-opacity:1.0000; stroke:none;">
<circle cx="141.1500" cy="119.2500" r="0.8500" /> 
<path style="fill:#000000; fill-opacity:1.0000; stroke:none;fill-rule:evenodd;"
d="M 140.3000,117.5600
140.3000,115.8600
142.0000,115.8600
142.0000,117.5600
Z" /> 
</g>
<g style="fill:#000000; fill-opacity:1.0000; stroke:none;">
<circle cx="123.5500" cy="52.5800" r="0.8000" /> 
<circle cx="123.5500" cy="42.4200" r="0.8000" /> 
</g>
<g style="fill:#000000; fill-opacity:1.0000; stroke:none;">
<circle cx="129.5000" cy="52.5800" r="0.8000" /> 
</g>
<g style="fill:#000000; fill-opacity:1.0000; stroke:none;">
<circle cx="129.5000" cy="42.4200" r="0.8000" /> 
<circle cx="117.5500" cy="52.5800" r="0.8000" /> 
</g>
<g style="fill:#000000; fill-opacity:1.0000; stroke:none;">
<circle cx="117.5500" cy="42.4200" r="0.8000" /> 
<circle cx="116.7000" cy="136.9600" r="0.8000" /> 
<circle cx="116.7000" cy="126.8000" r="0.8000" /> 
</g>
<g style="fill:#000000; fill-opacity:1.0000; stroke:none;">
<circle cx="116.8000" cy="115.5000" r="0.8000" /> 
<circle cx="116.8000" cy="125.6600" r="0.8000" /> 
</g>
<g style="fill:#000000; fill-opacity:1.0000; stroke:none;">
<circle cx="101.9605" cy="57.8975" r="0.8500" /> 
</g>
<g style="fill:#000000; fill-opacity:1.0000; stroke:none;">
<circle cx="99.4205" cy="57.8975" r="0.8500" /> 
</g>
<g style="fill:#000000; fill-opacity:1.0000; stroke:none;">
<circle cx="101.9605" cy="55.3575" r="0.8500" /> 
</g>
<g style="fill:#000000; fill-opacity:1.0000; stroke:none;">
<circle cx="99.4205" cy="55.3575" r="0.8500" /> 
</g>
<g style="fill:#000000; fill-opacity:1.0000; stroke:none;">
<circle cx="101.9605" cy="52.8175" r="0.8500" /> 
</g>
<g style="fill:#000000; fill-opacity:1.0000; stroke:none;">
<circle cx="99.4205" cy="52.8175" r="0.8500" /> 
</g>
<g style="fill:#000000; fill-opacity:1.0000; stroke:none;">
<circle cx="101.9605" cy="50.2775" r="0.8500" /> 
<path style="fill:#000000; fill-opacity:1.0000; stroke:none;fill-rule:evenodd;"
d="M 98.5705,51.1275
98.5705,49.4275
100.2705,49.4275
100.2705,51.1275
Z" /> 
</g>
<g style="fill:#000000; fill-opacity:1.0000; stroke:none;">
<circle cx="84.2100" cy="143.4498" r="0.8000" /> 
</g>
<g style="fill:#000000; fill-opacity:1.0000; stroke:none;">
<circle cx="84.2100" cy="145.9498" r="0.8000" /> 
<path style="fill:#000000; fill-opacity:1.0000; stroke:none;fill-rule:evenodd;"
d="M 94.7000,148.2973
96.3000,148.2973
96.3000,149.8973
94.7000,149.8973
Z" /> 
</g>
<g style="fill:#000000; fill-opacity:1.0000; stroke:none;">
<circle cx="95.5000" cy="152.5973" r="0.8000" /> 
</g>
<g style="fill:#000000; fill-opacity:1.0000; stroke:none;">
<circle cx="90.4600" cy="143.3998" r="0.8000" /> 
</g>
<g style="fill:#000000; fill-opacity:1.0000; stroke:none;">
<circle cx="90.4600" cy="145.8998" r="0.8000" /> 
</g>
<g style="fill:none; 
stroke:#000000; stroke-width:1.8000; stroke-opacity:1; 
stroke-linecap:round; stroke-linejoin:round;">
<path d="M110.6200 88.5375
L110.0200 88.5375
" />
<path d="M110.6200 91.0775
L110.0200 91.0775
" />
<path d="M110.6200 93.6175
L110.0200 93.6175
" />
<path d="M110.6200 96.1575
L110.0200 96.1575
" />
<path d="M110.6200 98.6975
L110.0200 98.6975
" />
<path d="M110.6200 101.2375
L110.0200 101.2375
" />
<path d="M110.6200 103.7775
L110.0200 103.7775
" />
<path d="M110.6200 106.3175
L110.0200 106.3175
" />
<path d="M110.6200 108.8575
L110.0200 108.8575
" />
<path d="M110.6200 111.3975
L110.0200 111.3975
" />
<path d="M110.6200 113.9375
L110.0200 113.9375
" />
<path d="M110.6200 116.4775
L110.0200 116.4775
" />
<path d="M110.6200 119.0175
L110.0200 119.0175
" />
<path d="M110.6200 121.5575
L110.0200 121.5575
" />
<path d="M110.6200 124.0975
L110.0200 124.0975
" />
<path d="M110.6200 126.6375
L110.0200 126.6375
" />
<path d="M110.6200 129.1775
L110.0200 129.1775
" />
<path d="M110.6200 131.7175
L110.0200 131.7175
" />
<path d="M110.6200 134.2575
L110.0200 134.2575
" />
<path d="M110.6200 136.7975
L110.0200 136.7975
" />
<path d="M95.3800 136.7975
L94.7800 136.7975
" />
<path d="M95.3800 134.2575
L94.7800 134.2575
" />
<path d="M95.3800 131.7175
L94.7800 131.7175
" />
<path d="M95.3800 129.1775
L94.7800 129.1775
" />
<path d="M95.3800 126.6375
L94.7800 126.6375
" />
<path d="M95.3800 124.0975
L94.7800 124.0975
" />
<path d="M95.3800 121.5575
L94.7800 121.5575
" />
<path d="M95.3800 119.0175
L94.7800 119.0175
" />
<path d="M95.3800 116.4775
L94.7800 116.4775
" />
<path d="M95.3800 113.9375
L94.7800 113.9375
" />
<path d="M95.3800 111.3975
L94.7800 111.3975
" />
<path d="M95.3800 108.8575
L94.7800 108.8575
" />
<path d="M95.3800 106.3175
L94.7800 106.3175
" />
<path d="M95.3800 103.7775
L94.7800 103.7775
" />
<path d="M95.3800 101.2375
L94.7800 101.2375
" />
<path d="M95.3800 98.6975
L94.7800 98.6975
" />
<path d="M95.3800 96.1575
L94.7800 96.1575
" />
<path d="M95.3800 93.6175
L94.7800 93.6175
" />
<path d="M95.3800 91.0775
L94.7800 91.0775
" />
<path d="M95.3800 88.5375
L94.7800 88.5375
" />
</g>
<g style="fill:#000000; fill-opacity:1.0000; stroke:none;">
<circle cx="78.7500" cy="146.1500" r="0.8000" /> 
</g>
<g style="fill:#000000; fill-opacity:1.0000; stroke:none;">
<circle cx="78.7500" cy="143.6500" r="0.8000" /> 
</g>
<g style="fill:#000000; fill-opacity:1.0000; stroke:none;">
<circle cx="78.7100" cy="149.2998" r="0.8000" /> 
</g>
<g style="fill:#000000; fill-opacity:1.0000; stroke:none;">
<circle cx="78.7100" cy="151.7998" r="0.8000" /> 
<path style="fill:#000000; fill-opacity:1.0000; stroke:none;fill-rule:evenodd;"
d="M 124.0000,151.3600
124.0000,149.3600
126.0000,149.3600
126.0000,151.3600
Z" /> 
<path style="fill:#000000; fill-opacity:1.0000; stroke:none;fill-rule:evenodd;"
d="M 137.9700,128.4900
137.9700,126.4900
139.9700,126.4900
139.9700,128.4900
Z" /> 
</g>
<g style="fill:#000000; fill-opacity:1.0000; stroke:none;">
<circle cx="104.2000" cy="152.0000" r="1.6000" /> 
</g>
<g style="fill:#000000; fill-opacity:1.0000; stroke:none;">
<circle cx="80.5000" cy="124.4000" r="1.6000" /> 
</g>
<g style="fill:#000000; fill-opacity:1.0000; stroke:none;">
<circle cx="80.1100" cy="40.5525" r="1.6000" /> 
</g>
<g style="fill:#000000; fill-opacity:1.0000; stroke:none;">
<circle cx="110.5000" cy="41.0500" r="1.6000" /> 
</g>
<g style="fill:#000000; fill-opacity:1.0000; stroke:none;">
<circle cx="106.6500" cy="143.4000" r="0.9000" /> 
<path style="fill:#000000; fill-opacity:1.0000; stroke:none;fill-rule:evenodd;"
d="M 105.7500,139.9600
107.5500,139.9600
107.5500,141.7600
105.7500,141.7600
Z" /> 
</g>
<g style="fill:#000000; fill-opacity:1.0000; stroke:none;">
<circle cx="110.4000" cy="153.8800" r="0.8000" /> 
<circle cx="110.4000" cy="143.7200" r="0.8000" /> 
</g> 
</svg>
