%TF.GenerationSoftware,KiCad,Pcbnew,9.0.1*%
%TF.CreationDate,2026-03-20T20:38:18+03:00*%
%TF.ProjectId,EasyDroidVR_PCB,45617379-4472-46f6-9964-56525f504342,rev?*%
%TF.SameCoordinates,Original*%
%TF.FileFunction,Legend,Top*%
%TF.FilePolarity,Positive*%
%FSLAX46Y46*%
G04 Gerber Fmt 4.6, Leading zero omitted, Abs format (unit mm)*
G04 Created by KiCad (PCBNEW 9.0.1) date 2026-03-20 20:38:18*
%MOMM*%
%LPD*%
G01*
G04 APERTURE LIST*
%ADD10C,0.100000*%
%ADD11C,0.150000*%
%ADD12C,0.120000*%
G04 APERTURE END LIST*
D10*
X109493884Y-77424919D02*
X109493884Y-76424919D01*
X109493884Y-76424919D02*
X109827217Y-77139204D01*
X109827217Y-77139204D02*
X110160550Y-76424919D01*
X110160550Y-76424919D02*
X110160550Y-77424919D01*
X110636741Y-77424919D02*
X110636741Y-76424919D01*
X110636741Y-76424919D02*
X111017693Y-76424919D01*
X111017693Y-76424919D02*
X111112931Y-76472538D01*
X111112931Y-76472538D02*
X111160550Y-76520157D01*
X111160550Y-76520157D02*
X111208169Y-76615395D01*
X111208169Y-76615395D02*
X111208169Y-76758252D01*
X111208169Y-76758252D02*
X111160550Y-76853490D01*
X111160550Y-76853490D02*
X111112931Y-76901109D01*
X111112931Y-76901109D02*
X111017693Y-76948728D01*
X111017693Y-76948728D02*
X110636741Y-76948728D01*
X111636741Y-76424919D02*
X111636741Y-77234442D01*
X111636741Y-77234442D02*
X111684360Y-77329680D01*
X111684360Y-77329680D02*
X111731979Y-77377300D01*
X111731979Y-77377300D02*
X111827217Y-77424919D01*
X111827217Y-77424919D02*
X112017693Y-77424919D01*
X112017693Y-77424919D02*
X112112931Y-77377300D01*
X112112931Y-77377300D02*
X112160550Y-77329680D01*
X112160550Y-77329680D02*
X112208169Y-77234442D01*
X112208169Y-77234442D02*
X112208169Y-76424919D01*
X113112931Y-76424919D02*
X112922455Y-76424919D01*
X112922455Y-76424919D02*
X112827217Y-76472538D01*
X112827217Y-76472538D02*
X112779598Y-76520157D01*
X112779598Y-76520157D02*
X112684360Y-76663014D01*
X112684360Y-76663014D02*
X112636741Y-76853490D01*
X112636741Y-76853490D02*
X112636741Y-77234442D01*
X112636741Y-77234442D02*
X112684360Y-77329680D01*
X112684360Y-77329680D02*
X112731979Y-77377300D01*
X112731979Y-77377300D02*
X112827217Y-77424919D01*
X112827217Y-77424919D02*
X113017693Y-77424919D01*
X113017693Y-77424919D02*
X113112931Y-77377300D01*
X113112931Y-77377300D02*
X113160550Y-77329680D01*
X113160550Y-77329680D02*
X113208169Y-77234442D01*
X113208169Y-77234442D02*
X113208169Y-76996347D01*
X113208169Y-76996347D02*
X113160550Y-76901109D01*
X113160550Y-76901109D02*
X113112931Y-76853490D01*
X113112931Y-76853490D02*
X113017693Y-76805871D01*
X113017693Y-76805871D02*
X112827217Y-76805871D01*
X112827217Y-76805871D02*
X112731979Y-76853490D01*
X112731979Y-76853490D02*
X112684360Y-76901109D01*
X112684360Y-76901109D02*
X112636741Y-76996347D01*
X113827217Y-76424919D02*
X113922455Y-76424919D01*
X113922455Y-76424919D02*
X114017693Y-76472538D01*
X114017693Y-76472538D02*
X114065312Y-76520157D01*
X114065312Y-76520157D02*
X114112931Y-76615395D01*
X114112931Y-76615395D02*
X114160550Y-76805871D01*
X114160550Y-76805871D02*
X114160550Y-77043966D01*
X114160550Y-77043966D02*
X114112931Y-77234442D01*
X114112931Y-77234442D02*
X114065312Y-77329680D01*
X114065312Y-77329680D02*
X114017693Y-77377300D01*
X114017693Y-77377300D02*
X113922455Y-77424919D01*
X113922455Y-77424919D02*
X113827217Y-77424919D01*
X113827217Y-77424919D02*
X113731979Y-77377300D01*
X113731979Y-77377300D02*
X113684360Y-77329680D01*
X113684360Y-77329680D02*
X113636741Y-77234442D01*
X113636741Y-77234442D02*
X113589122Y-77043966D01*
X113589122Y-77043966D02*
X113589122Y-76805871D01*
X113589122Y-76805871D02*
X113636741Y-76615395D01*
X113636741Y-76615395D02*
X113684360Y-76520157D01*
X113684360Y-76520157D02*
X113731979Y-76472538D01*
X113731979Y-76472538D02*
X113827217Y-76424919D01*
X115065312Y-76424919D02*
X114589122Y-76424919D01*
X114589122Y-76424919D02*
X114541503Y-76901109D01*
X114541503Y-76901109D02*
X114589122Y-76853490D01*
X114589122Y-76853490D02*
X114684360Y-76805871D01*
X114684360Y-76805871D02*
X114922455Y-76805871D01*
X114922455Y-76805871D02*
X115017693Y-76853490D01*
X115017693Y-76853490D02*
X115065312Y-76901109D01*
X115065312Y-76901109D02*
X115112931Y-76996347D01*
X115112931Y-76996347D02*
X115112931Y-77234442D01*
X115112931Y-77234442D02*
X115065312Y-77329680D01*
X115065312Y-77329680D02*
X115017693Y-77377300D01*
X115017693Y-77377300D02*
X114922455Y-77424919D01*
X114922455Y-77424919D02*
X114684360Y-77424919D01*
X114684360Y-77424919D02*
X114589122Y-77377300D01*
X114589122Y-77377300D02*
X114541503Y-77329680D01*
X115731979Y-76424919D02*
X115827217Y-76424919D01*
X115827217Y-76424919D02*
X115922455Y-76472538D01*
X115922455Y-76472538D02*
X115970074Y-76520157D01*
X115970074Y-76520157D02*
X116017693Y-76615395D01*
X116017693Y-76615395D02*
X116065312Y-76805871D01*
X116065312Y-76805871D02*
X116065312Y-77043966D01*
X116065312Y-77043966D02*
X116017693Y-77234442D01*
X116017693Y-77234442D02*
X115970074Y-77329680D01*
X115970074Y-77329680D02*
X115922455Y-77377300D01*
X115922455Y-77377300D02*
X115827217Y-77424919D01*
X115827217Y-77424919D02*
X115731979Y-77424919D01*
X115731979Y-77424919D02*
X115636741Y-77377300D01*
X115636741Y-77377300D02*
X115589122Y-77329680D01*
X115589122Y-77329680D02*
X115541503Y-77234442D01*
X115541503Y-77234442D02*
X115493884Y-77043966D01*
X115493884Y-77043966D02*
X115493884Y-76805871D01*
X115493884Y-76805871D02*
X115541503Y-76615395D01*
X115541503Y-76615395D02*
X115589122Y-76520157D01*
X115589122Y-76520157D02*
X115636741Y-76472538D01*
X115636741Y-76472538D02*
X115731979Y-76424919D01*
X109493884Y-79424919D02*
X109493884Y-78424919D01*
X109493884Y-78424919D02*
X109827217Y-79139204D01*
X109827217Y-79139204D02*
X110160550Y-78424919D01*
X110160550Y-78424919D02*
X110160550Y-79424919D01*
X110636741Y-79424919D02*
X110636741Y-78424919D01*
X110636741Y-78424919D02*
X111017693Y-78424919D01*
X111017693Y-78424919D02*
X111112931Y-78472538D01*
X111112931Y-78472538D02*
X111160550Y-78520157D01*
X111160550Y-78520157D02*
X111208169Y-78615395D01*
X111208169Y-78615395D02*
X111208169Y-78758252D01*
X111208169Y-78758252D02*
X111160550Y-78853490D01*
X111160550Y-78853490D02*
X111112931Y-78901109D01*
X111112931Y-78901109D02*
X111017693Y-78948728D01*
X111017693Y-78948728D02*
X110636741Y-78948728D01*
X111636741Y-78424919D02*
X111636741Y-79234442D01*
X111636741Y-79234442D02*
X111684360Y-79329680D01*
X111684360Y-79329680D02*
X111731979Y-79377300D01*
X111731979Y-79377300D02*
X111827217Y-79424919D01*
X111827217Y-79424919D02*
X112017693Y-79424919D01*
X112017693Y-79424919D02*
X112112931Y-79377300D01*
X112112931Y-79377300D02*
X112160550Y-79329680D01*
X112160550Y-79329680D02*
X112208169Y-79234442D01*
X112208169Y-79234442D02*
X112208169Y-78424919D01*
X113112931Y-78424919D02*
X112922455Y-78424919D01*
X112922455Y-78424919D02*
X112827217Y-78472538D01*
X112827217Y-78472538D02*
X112779598Y-78520157D01*
X112779598Y-78520157D02*
X112684360Y-78663014D01*
X112684360Y-78663014D02*
X112636741Y-78853490D01*
X112636741Y-78853490D02*
X112636741Y-79234442D01*
X112636741Y-79234442D02*
X112684360Y-79329680D01*
X112684360Y-79329680D02*
X112731979Y-79377300D01*
X112731979Y-79377300D02*
X112827217Y-79424919D01*
X112827217Y-79424919D02*
X113017693Y-79424919D01*
X113017693Y-79424919D02*
X113112931Y-79377300D01*
X113112931Y-79377300D02*
X113160550Y-79329680D01*
X113160550Y-79329680D02*
X113208169Y-79234442D01*
X113208169Y-79234442D02*
X113208169Y-78996347D01*
X113208169Y-78996347D02*
X113160550Y-78901109D01*
X113160550Y-78901109D02*
X113112931Y-78853490D01*
X113112931Y-78853490D02*
X113017693Y-78805871D01*
X113017693Y-78805871D02*
X112827217Y-78805871D01*
X112827217Y-78805871D02*
X112731979Y-78853490D01*
X112731979Y-78853490D02*
X112684360Y-78901109D01*
X112684360Y-78901109D02*
X112636741Y-78996347D01*
X114112931Y-78424919D02*
X113636741Y-78424919D01*
X113636741Y-78424919D02*
X113589122Y-78901109D01*
X113589122Y-78901109D02*
X113636741Y-78853490D01*
X113636741Y-78853490D02*
X113731979Y-78805871D01*
X113731979Y-78805871D02*
X113970074Y-78805871D01*
X113970074Y-78805871D02*
X114065312Y-78853490D01*
X114065312Y-78853490D02*
X114112931Y-78901109D01*
X114112931Y-78901109D02*
X114160550Y-78996347D01*
X114160550Y-78996347D02*
X114160550Y-79234442D01*
X114160550Y-79234442D02*
X114112931Y-79329680D01*
X114112931Y-79329680D02*
X114065312Y-79377300D01*
X114065312Y-79377300D02*
X113970074Y-79424919D01*
X113970074Y-79424919D02*
X113731979Y-79424919D01*
X113731979Y-79424919D02*
X113636741Y-79377300D01*
X113636741Y-79377300D02*
X113589122Y-79329680D01*
X114779598Y-78424919D02*
X114874836Y-78424919D01*
X114874836Y-78424919D02*
X114970074Y-78472538D01*
X114970074Y-78472538D02*
X115017693Y-78520157D01*
X115017693Y-78520157D02*
X115065312Y-78615395D01*
X115065312Y-78615395D02*
X115112931Y-78805871D01*
X115112931Y-78805871D02*
X115112931Y-79043966D01*
X115112931Y-79043966D02*
X115065312Y-79234442D01*
X115065312Y-79234442D02*
X115017693Y-79329680D01*
X115017693Y-79329680D02*
X114970074Y-79377300D01*
X114970074Y-79377300D02*
X114874836Y-79424919D01*
X114874836Y-79424919D02*
X114779598Y-79424919D01*
X114779598Y-79424919D02*
X114684360Y-79377300D01*
X114684360Y-79377300D02*
X114636741Y-79329680D01*
X114636741Y-79329680D02*
X114589122Y-79234442D01*
X114589122Y-79234442D02*
X114541503Y-79043966D01*
X114541503Y-79043966D02*
X114541503Y-78805871D01*
X114541503Y-78805871D02*
X114589122Y-78615395D01*
X114589122Y-78615395D02*
X114636741Y-78520157D01*
X114636741Y-78520157D02*
X114684360Y-78472538D01*
X114684360Y-78472538D02*
X114779598Y-78424919D01*
X115731979Y-78424919D02*
X115827217Y-78424919D01*
X115827217Y-78424919D02*
X115922455Y-78472538D01*
X115922455Y-78472538D02*
X115970074Y-78520157D01*
X115970074Y-78520157D02*
X116017693Y-78615395D01*
X116017693Y-78615395D02*
X116065312Y-78805871D01*
X116065312Y-78805871D02*
X116065312Y-79043966D01*
X116065312Y-79043966D02*
X116017693Y-79234442D01*
X116017693Y-79234442D02*
X115970074Y-79329680D01*
X115970074Y-79329680D02*
X115922455Y-79377300D01*
X115922455Y-79377300D02*
X115827217Y-79424919D01*
X115827217Y-79424919D02*
X115731979Y-79424919D01*
X115731979Y-79424919D02*
X115636741Y-79377300D01*
X115636741Y-79377300D02*
X115589122Y-79329680D01*
X115589122Y-79329680D02*
X115541503Y-79234442D01*
X115541503Y-79234442D02*
X115493884Y-79043966D01*
X115493884Y-79043966D02*
X115493884Y-78805871D01*
X115493884Y-78805871D02*
X115541503Y-78615395D01*
X115541503Y-78615395D02*
X115589122Y-78520157D01*
X115589122Y-78520157D02*
X115636741Y-78472538D01*
X115636741Y-78472538D02*
X115731979Y-78424919D01*
X117208169Y-78377300D02*
X116351027Y-79663014D01*
X117541503Y-79424919D02*
X117541503Y-78424919D01*
X117541503Y-78424919D02*
X117874836Y-79139204D01*
X117874836Y-79139204D02*
X118208169Y-78424919D01*
X118208169Y-78424919D02*
X118208169Y-79424919D01*
X118684360Y-79424919D02*
X118684360Y-78424919D01*
X118684360Y-78424919D02*
X119065312Y-78424919D01*
X119065312Y-78424919D02*
X119160550Y-78472538D01*
X119160550Y-78472538D02*
X119208169Y-78520157D01*
X119208169Y-78520157D02*
X119255788Y-78615395D01*
X119255788Y-78615395D02*
X119255788Y-78758252D01*
X119255788Y-78758252D02*
X119208169Y-78853490D01*
X119208169Y-78853490D02*
X119160550Y-78901109D01*
X119160550Y-78901109D02*
X119065312Y-78948728D01*
X119065312Y-78948728D02*
X118684360Y-78948728D01*
X119684360Y-78424919D02*
X119684360Y-79234442D01*
X119684360Y-79234442D02*
X119731979Y-79329680D01*
X119731979Y-79329680D02*
X119779598Y-79377300D01*
X119779598Y-79377300D02*
X119874836Y-79424919D01*
X119874836Y-79424919D02*
X120065312Y-79424919D01*
X120065312Y-79424919D02*
X120160550Y-79377300D01*
X120160550Y-79377300D02*
X120208169Y-79329680D01*
X120208169Y-79329680D02*
X120255788Y-79234442D01*
X120255788Y-79234442D02*
X120255788Y-78424919D01*
X120779598Y-79424919D02*
X120970074Y-79424919D01*
X120970074Y-79424919D02*
X121065312Y-79377300D01*
X121065312Y-79377300D02*
X121112931Y-79329680D01*
X121112931Y-79329680D02*
X121208169Y-79186823D01*
X121208169Y-79186823D02*
X121255788Y-78996347D01*
X121255788Y-78996347D02*
X121255788Y-78615395D01*
X121255788Y-78615395D02*
X121208169Y-78520157D01*
X121208169Y-78520157D02*
X121160550Y-78472538D01*
X121160550Y-78472538D02*
X121065312Y-78424919D01*
X121065312Y-78424919D02*
X120874836Y-78424919D01*
X120874836Y-78424919D02*
X120779598Y-78472538D01*
X120779598Y-78472538D02*
X120731979Y-78520157D01*
X120731979Y-78520157D02*
X120684360Y-78615395D01*
X120684360Y-78615395D02*
X120684360Y-78853490D01*
X120684360Y-78853490D02*
X120731979Y-78948728D01*
X120731979Y-78948728D02*
X120779598Y-78996347D01*
X120779598Y-78996347D02*
X120874836Y-79043966D01*
X120874836Y-79043966D02*
X121065312Y-79043966D01*
X121065312Y-79043966D02*
X121160550Y-78996347D01*
X121160550Y-78996347D02*
X121208169Y-78948728D01*
X121208169Y-78948728D02*
X121255788Y-78853490D01*
X121636741Y-78520157D02*
X121684360Y-78472538D01*
X121684360Y-78472538D02*
X121779598Y-78424919D01*
X121779598Y-78424919D02*
X122017693Y-78424919D01*
X122017693Y-78424919D02*
X122112931Y-78472538D01*
X122112931Y-78472538D02*
X122160550Y-78520157D01*
X122160550Y-78520157D02*
X122208169Y-78615395D01*
X122208169Y-78615395D02*
X122208169Y-78710633D01*
X122208169Y-78710633D02*
X122160550Y-78853490D01*
X122160550Y-78853490D02*
X121589122Y-79424919D01*
X121589122Y-79424919D02*
X122208169Y-79424919D01*
X123112931Y-78424919D02*
X122636741Y-78424919D01*
X122636741Y-78424919D02*
X122589122Y-78901109D01*
X122589122Y-78901109D02*
X122636741Y-78853490D01*
X122636741Y-78853490D02*
X122731979Y-78805871D01*
X122731979Y-78805871D02*
X122970074Y-78805871D01*
X122970074Y-78805871D02*
X123065312Y-78853490D01*
X123065312Y-78853490D02*
X123112931Y-78901109D01*
X123112931Y-78901109D02*
X123160550Y-78996347D01*
X123160550Y-78996347D02*
X123160550Y-79234442D01*
X123160550Y-79234442D02*
X123112931Y-79329680D01*
X123112931Y-79329680D02*
X123065312Y-79377300D01*
X123065312Y-79377300D02*
X122970074Y-79424919D01*
X122970074Y-79424919D02*
X122731979Y-79424919D01*
X122731979Y-79424919D02*
X122636741Y-79377300D01*
X122636741Y-79377300D02*
X122589122Y-79329680D01*
X123779598Y-78424919D02*
X123874836Y-78424919D01*
X123874836Y-78424919D02*
X123970074Y-78472538D01*
X123970074Y-78472538D02*
X124017693Y-78520157D01*
X124017693Y-78520157D02*
X124065312Y-78615395D01*
X124065312Y-78615395D02*
X124112931Y-78805871D01*
X124112931Y-78805871D02*
X124112931Y-79043966D01*
X124112931Y-79043966D02*
X124065312Y-79234442D01*
X124065312Y-79234442D02*
X124017693Y-79329680D01*
X124017693Y-79329680D02*
X123970074Y-79377300D01*
X123970074Y-79377300D02*
X123874836Y-79424919D01*
X123874836Y-79424919D02*
X123779598Y-79424919D01*
X123779598Y-79424919D02*
X123684360Y-79377300D01*
X123684360Y-79377300D02*
X123636741Y-79329680D01*
X123636741Y-79329680D02*
X123589122Y-79234442D01*
X123589122Y-79234442D02*
X123541503Y-79043966D01*
X123541503Y-79043966D02*
X123541503Y-78805871D01*
X123541503Y-78805871D02*
X123589122Y-78615395D01*
X123589122Y-78615395D02*
X123636741Y-78520157D01*
X123636741Y-78520157D02*
X123684360Y-78472538D01*
X123684360Y-78472538D02*
X123779598Y-78424919D01*
X78397217Y-111251109D02*
X78540074Y-111298728D01*
X78540074Y-111298728D02*
X78587693Y-111346347D01*
X78587693Y-111346347D02*
X78635312Y-111441585D01*
X78635312Y-111441585D02*
X78635312Y-111584442D01*
X78635312Y-111584442D02*
X78587693Y-111679680D01*
X78587693Y-111679680D02*
X78540074Y-111727300D01*
X78540074Y-111727300D02*
X78444836Y-111774919D01*
X78444836Y-111774919D02*
X78063884Y-111774919D01*
X78063884Y-111774919D02*
X78063884Y-110774919D01*
X78063884Y-110774919D02*
X78397217Y-110774919D01*
X78397217Y-110774919D02*
X78492455Y-110822538D01*
X78492455Y-110822538D02*
X78540074Y-110870157D01*
X78540074Y-110870157D02*
X78587693Y-110965395D01*
X78587693Y-110965395D02*
X78587693Y-111060633D01*
X78587693Y-111060633D02*
X78540074Y-111155871D01*
X78540074Y-111155871D02*
X78492455Y-111203490D01*
X78492455Y-111203490D02*
X78397217Y-111251109D01*
X78397217Y-111251109D02*
X78063884Y-111251109D01*
X78921027Y-111108252D02*
X79301979Y-111108252D01*
X79063884Y-110774919D02*
X79063884Y-111632061D01*
X79063884Y-111632061D02*
X79111503Y-111727300D01*
X79111503Y-111727300D02*
X79206741Y-111774919D01*
X79206741Y-111774919D02*
X79301979Y-111774919D01*
X79635313Y-111108252D02*
X79635313Y-111774919D01*
X79635313Y-111203490D02*
X79682932Y-111155871D01*
X79682932Y-111155871D02*
X79778170Y-111108252D01*
X79778170Y-111108252D02*
X79921027Y-111108252D01*
X79921027Y-111108252D02*
X80016265Y-111155871D01*
X80016265Y-111155871D02*
X80063884Y-111251109D01*
X80063884Y-111251109D02*
X80063884Y-111774919D01*
X80492456Y-110870157D02*
X80540075Y-110822538D01*
X80540075Y-110822538D02*
X80635313Y-110774919D01*
X80635313Y-110774919D02*
X80873408Y-110774919D01*
X80873408Y-110774919D02*
X80968646Y-110822538D01*
X80968646Y-110822538D02*
X81016265Y-110870157D01*
X81016265Y-110870157D02*
X81063884Y-110965395D01*
X81063884Y-110965395D02*
X81063884Y-111060633D01*
X81063884Y-111060633D02*
X81016265Y-111203490D01*
X81016265Y-111203490D02*
X80444837Y-111774919D01*
X80444837Y-111774919D02*
X81063884Y-111774919D01*
X82254361Y-111774919D02*
X82254361Y-110774919D01*
X82254361Y-110774919D02*
X82635313Y-110774919D01*
X82635313Y-110774919D02*
X82730551Y-110822538D01*
X82730551Y-110822538D02*
X82778170Y-110870157D01*
X82778170Y-110870157D02*
X82825789Y-110965395D01*
X82825789Y-110965395D02*
X82825789Y-111108252D01*
X82825789Y-111108252D02*
X82778170Y-111203490D01*
X82778170Y-111203490D02*
X82730551Y-111251109D01*
X82730551Y-111251109D02*
X82635313Y-111298728D01*
X82635313Y-111298728D02*
X82254361Y-111298728D01*
X83730551Y-111774919D02*
X83254361Y-111774919D01*
X83254361Y-111774919D02*
X83254361Y-110774919D01*
X84063885Y-111774919D02*
X84063885Y-110774919D01*
X84063885Y-110774919D02*
X84301980Y-110774919D01*
X84301980Y-110774919D02*
X84444837Y-110822538D01*
X84444837Y-110822538D02*
X84540075Y-110917776D01*
X84540075Y-110917776D02*
X84587694Y-111013014D01*
X84587694Y-111013014D02*
X84635313Y-111203490D01*
X84635313Y-111203490D02*
X84635313Y-111346347D01*
X84635313Y-111346347D02*
X84587694Y-111536823D01*
X84587694Y-111536823D02*
X84540075Y-111632061D01*
X84540075Y-111632061D02*
X84444837Y-111727300D01*
X84444837Y-111727300D02*
X84301980Y-111774919D01*
X84301980Y-111774919D02*
X84063885Y-111774919D01*
X84968647Y-110774919D02*
X85206742Y-111774919D01*
X85206742Y-111774919D02*
X85397218Y-111060633D01*
X85397218Y-111060633D02*
X85587694Y-111774919D01*
X85587694Y-111774919D02*
X85825790Y-110774919D01*
X86206742Y-111774919D02*
X86206742Y-110774919D01*
X86206742Y-110774919D02*
X86778170Y-111774919D01*
X86778170Y-111774919D02*
X86778170Y-110774919D01*
X84337693Y-121122538D02*
X84242455Y-121074919D01*
X84242455Y-121074919D02*
X84099598Y-121074919D01*
X84099598Y-121074919D02*
X83956741Y-121122538D01*
X83956741Y-121122538D02*
X83861503Y-121217776D01*
X83861503Y-121217776D02*
X83813884Y-121313014D01*
X83813884Y-121313014D02*
X83766265Y-121503490D01*
X83766265Y-121503490D02*
X83766265Y-121646347D01*
X83766265Y-121646347D02*
X83813884Y-121836823D01*
X83813884Y-121836823D02*
X83861503Y-121932061D01*
X83861503Y-121932061D02*
X83956741Y-122027300D01*
X83956741Y-122027300D02*
X84099598Y-122074919D01*
X84099598Y-122074919D02*
X84194836Y-122074919D01*
X84194836Y-122074919D02*
X84337693Y-122027300D01*
X84337693Y-122027300D02*
X84385312Y-121979680D01*
X84385312Y-121979680D02*
X84385312Y-121646347D01*
X84385312Y-121646347D02*
X84194836Y-121646347D01*
X84813884Y-122074919D02*
X84813884Y-121074919D01*
X84813884Y-121074919D02*
X85385312Y-122074919D01*
X85385312Y-122074919D02*
X85385312Y-121074919D01*
X85861503Y-122074919D02*
X85861503Y-121074919D01*
X85861503Y-121074919D02*
X86099598Y-121074919D01*
X86099598Y-121074919D02*
X86242455Y-121122538D01*
X86242455Y-121122538D02*
X86337693Y-121217776D01*
X86337693Y-121217776D02*
X86385312Y-121313014D01*
X86385312Y-121313014D02*
X86432931Y-121503490D01*
X86432931Y-121503490D02*
X86432931Y-121646347D01*
X86432931Y-121646347D02*
X86385312Y-121836823D01*
X86385312Y-121836823D02*
X86337693Y-121932061D01*
X86337693Y-121932061D02*
X86242455Y-122027300D01*
X86242455Y-122027300D02*
X86099598Y-122074919D01*
X86099598Y-122074919D02*
X85861503Y-122074919D01*
X78397217Y-101151109D02*
X78540074Y-101198728D01*
X78540074Y-101198728D02*
X78587693Y-101246347D01*
X78587693Y-101246347D02*
X78635312Y-101341585D01*
X78635312Y-101341585D02*
X78635312Y-101484442D01*
X78635312Y-101484442D02*
X78587693Y-101579680D01*
X78587693Y-101579680D02*
X78540074Y-101627300D01*
X78540074Y-101627300D02*
X78444836Y-101674919D01*
X78444836Y-101674919D02*
X78063884Y-101674919D01*
X78063884Y-101674919D02*
X78063884Y-100674919D01*
X78063884Y-100674919D02*
X78397217Y-100674919D01*
X78397217Y-100674919D02*
X78492455Y-100722538D01*
X78492455Y-100722538D02*
X78540074Y-100770157D01*
X78540074Y-100770157D02*
X78587693Y-100865395D01*
X78587693Y-100865395D02*
X78587693Y-100960633D01*
X78587693Y-100960633D02*
X78540074Y-101055871D01*
X78540074Y-101055871D02*
X78492455Y-101103490D01*
X78492455Y-101103490D02*
X78397217Y-101151109D01*
X78397217Y-101151109D02*
X78063884Y-101151109D01*
X78921027Y-101008252D02*
X79301979Y-101008252D01*
X79063884Y-100674919D02*
X79063884Y-101532061D01*
X79063884Y-101532061D02*
X79111503Y-101627300D01*
X79111503Y-101627300D02*
X79206741Y-101674919D01*
X79206741Y-101674919D02*
X79301979Y-101674919D01*
X79635313Y-101008252D02*
X79635313Y-101674919D01*
X79635313Y-101103490D02*
X79682932Y-101055871D01*
X79682932Y-101055871D02*
X79778170Y-101008252D01*
X79778170Y-101008252D02*
X79921027Y-101008252D01*
X79921027Y-101008252D02*
X80016265Y-101055871D01*
X80016265Y-101055871D02*
X80063884Y-101151109D01*
X80063884Y-101151109D02*
X80063884Y-101674919D01*
X81016265Y-100674919D02*
X80540075Y-100674919D01*
X80540075Y-100674919D02*
X80492456Y-101151109D01*
X80492456Y-101151109D02*
X80540075Y-101103490D01*
X80540075Y-101103490D02*
X80635313Y-101055871D01*
X80635313Y-101055871D02*
X80873408Y-101055871D01*
X80873408Y-101055871D02*
X80968646Y-101103490D01*
X80968646Y-101103490D02*
X81016265Y-101151109D01*
X81016265Y-101151109D02*
X81063884Y-101246347D01*
X81063884Y-101246347D02*
X81063884Y-101484442D01*
X81063884Y-101484442D02*
X81016265Y-101579680D01*
X81016265Y-101579680D02*
X80968646Y-101627300D01*
X80968646Y-101627300D02*
X80873408Y-101674919D01*
X80873408Y-101674919D02*
X80635313Y-101674919D01*
X80635313Y-101674919D02*
X80540075Y-101627300D01*
X80540075Y-101627300D02*
X80492456Y-101579680D01*
X82254361Y-101674919D02*
X82254361Y-100674919D01*
X82254361Y-100674919D02*
X82635313Y-100674919D01*
X82635313Y-100674919D02*
X82730551Y-100722538D01*
X82730551Y-100722538D02*
X82778170Y-100770157D01*
X82778170Y-100770157D02*
X82825789Y-100865395D01*
X82825789Y-100865395D02*
X82825789Y-101008252D01*
X82825789Y-101008252D02*
X82778170Y-101103490D01*
X82778170Y-101103490D02*
X82730551Y-101151109D01*
X82730551Y-101151109D02*
X82635313Y-101198728D01*
X82635313Y-101198728D02*
X82254361Y-101198728D01*
X83730551Y-101674919D02*
X83254361Y-101674919D01*
X83254361Y-101674919D02*
X83254361Y-100674919D01*
X84063885Y-101674919D02*
X84063885Y-100674919D01*
X84063885Y-100674919D02*
X84301980Y-100674919D01*
X84301980Y-100674919D02*
X84444837Y-100722538D01*
X84444837Y-100722538D02*
X84540075Y-100817776D01*
X84540075Y-100817776D02*
X84587694Y-100913014D01*
X84587694Y-100913014D02*
X84635313Y-101103490D01*
X84635313Y-101103490D02*
X84635313Y-101246347D01*
X84635313Y-101246347D02*
X84587694Y-101436823D01*
X84587694Y-101436823D02*
X84540075Y-101532061D01*
X84540075Y-101532061D02*
X84444837Y-101627300D01*
X84444837Y-101627300D02*
X84301980Y-101674919D01*
X84301980Y-101674919D02*
X84063885Y-101674919D01*
X84968647Y-100674919D02*
X85206742Y-101674919D01*
X85206742Y-101674919D02*
X85397218Y-100960633D01*
X85397218Y-100960633D02*
X85587694Y-101674919D01*
X85587694Y-101674919D02*
X85825790Y-100674919D01*
X86206742Y-101674919D02*
X86206742Y-100674919D01*
X86206742Y-100674919D02*
X86778170Y-101674919D01*
X86778170Y-101674919D02*
X86778170Y-100674919D01*
X78397217Y-113901109D02*
X78540074Y-113948728D01*
X78540074Y-113948728D02*
X78587693Y-113996347D01*
X78587693Y-113996347D02*
X78635312Y-114091585D01*
X78635312Y-114091585D02*
X78635312Y-114234442D01*
X78635312Y-114234442D02*
X78587693Y-114329680D01*
X78587693Y-114329680D02*
X78540074Y-114377300D01*
X78540074Y-114377300D02*
X78444836Y-114424919D01*
X78444836Y-114424919D02*
X78063884Y-114424919D01*
X78063884Y-114424919D02*
X78063884Y-113424919D01*
X78063884Y-113424919D02*
X78397217Y-113424919D01*
X78397217Y-113424919D02*
X78492455Y-113472538D01*
X78492455Y-113472538D02*
X78540074Y-113520157D01*
X78540074Y-113520157D02*
X78587693Y-113615395D01*
X78587693Y-113615395D02*
X78587693Y-113710633D01*
X78587693Y-113710633D02*
X78540074Y-113805871D01*
X78540074Y-113805871D02*
X78492455Y-113853490D01*
X78492455Y-113853490D02*
X78397217Y-113901109D01*
X78397217Y-113901109D02*
X78063884Y-113901109D01*
X78921027Y-113758252D02*
X79301979Y-113758252D01*
X79063884Y-113424919D02*
X79063884Y-114282061D01*
X79063884Y-114282061D02*
X79111503Y-114377300D01*
X79111503Y-114377300D02*
X79206741Y-114424919D01*
X79206741Y-114424919D02*
X79301979Y-114424919D01*
X79635313Y-113758252D02*
X79635313Y-114424919D01*
X79635313Y-113853490D02*
X79682932Y-113805871D01*
X79682932Y-113805871D02*
X79778170Y-113758252D01*
X79778170Y-113758252D02*
X79921027Y-113758252D01*
X79921027Y-113758252D02*
X80016265Y-113805871D01*
X80016265Y-113805871D02*
X80063884Y-113901109D01*
X80063884Y-113901109D02*
X80063884Y-114424919D01*
X80444837Y-113424919D02*
X81063884Y-113424919D01*
X81063884Y-113424919D02*
X80730551Y-113805871D01*
X80730551Y-113805871D02*
X80873408Y-113805871D01*
X80873408Y-113805871D02*
X80968646Y-113853490D01*
X80968646Y-113853490D02*
X81016265Y-113901109D01*
X81016265Y-113901109D02*
X81063884Y-113996347D01*
X81063884Y-113996347D02*
X81063884Y-114234442D01*
X81063884Y-114234442D02*
X81016265Y-114329680D01*
X81016265Y-114329680D02*
X80968646Y-114377300D01*
X80968646Y-114377300D02*
X80873408Y-114424919D01*
X80873408Y-114424919D02*
X80587694Y-114424919D01*
X80587694Y-114424919D02*
X80492456Y-114377300D01*
X80492456Y-114377300D02*
X80444837Y-114329680D01*
X82254361Y-114424919D02*
X82254361Y-113424919D01*
X82254361Y-113424919D02*
X82635313Y-113424919D01*
X82635313Y-113424919D02*
X82730551Y-113472538D01*
X82730551Y-113472538D02*
X82778170Y-113520157D01*
X82778170Y-113520157D02*
X82825789Y-113615395D01*
X82825789Y-113615395D02*
X82825789Y-113758252D01*
X82825789Y-113758252D02*
X82778170Y-113853490D01*
X82778170Y-113853490D02*
X82730551Y-113901109D01*
X82730551Y-113901109D02*
X82635313Y-113948728D01*
X82635313Y-113948728D02*
X82254361Y-113948728D01*
X83730551Y-114424919D02*
X83254361Y-114424919D01*
X83254361Y-114424919D02*
X83254361Y-113424919D01*
X84063885Y-114424919D02*
X84063885Y-113424919D01*
X84063885Y-113424919D02*
X84301980Y-113424919D01*
X84301980Y-113424919D02*
X84444837Y-113472538D01*
X84444837Y-113472538D02*
X84540075Y-113567776D01*
X84540075Y-113567776D02*
X84587694Y-113663014D01*
X84587694Y-113663014D02*
X84635313Y-113853490D01*
X84635313Y-113853490D02*
X84635313Y-113996347D01*
X84635313Y-113996347D02*
X84587694Y-114186823D01*
X84587694Y-114186823D02*
X84540075Y-114282061D01*
X84540075Y-114282061D02*
X84444837Y-114377300D01*
X84444837Y-114377300D02*
X84301980Y-114424919D01*
X84301980Y-114424919D02*
X84063885Y-114424919D01*
X84968647Y-113424919D02*
X85206742Y-114424919D01*
X85206742Y-114424919D02*
X85397218Y-113710633D01*
X85397218Y-113710633D02*
X85587694Y-114424919D01*
X85587694Y-114424919D02*
X85825790Y-113424919D01*
X86206742Y-114424919D02*
X86206742Y-113424919D01*
X86206742Y-113424919D02*
X86778170Y-114424919D01*
X86778170Y-114424919D02*
X86778170Y-113424919D01*
X78397217Y-116351109D02*
X78540074Y-116398728D01*
X78540074Y-116398728D02*
X78587693Y-116446347D01*
X78587693Y-116446347D02*
X78635312Y-116541585D01*
X78635312Y-116541585D02*
X78635312Y-116684442D01*
X78635312Y-116684442D02*
X78587693Y-116779680D01*
X78587693Y-116779680D02*
X78540074Y-116827300D01*
X78540074Y-116827300D02*
X78444836Y-116874919D01*
X78444836Y-116874919D02*
X78063884Y-116874919D01*
X78063884Y-116874919D02*
X78063884Y-115874919D01*
X78063884Y-115874919D02*
X78397217Y-115874919D01*
X78397217Y-115874919D02*
X78492455Y-115922538D01*
X78492455Y-115922538D02*
X78540074Y-115970157D01*
X78540074Y-115970157D02*
X78587693Y-116065395D01*
X78587693Y-116065395D02*
X78587693Y-116160633D01*
X78587693Y-116160633D02*
X78540074Y-116255871D01*
X78540074Y-116255871D02*
X78492455Y-116303490D01*
X78492455Y-116303490D02*
X78397217Y-116351109D01*
X78397217Y-116351109D02*
X78063884Y-116351109D01*
X78921027Y-116208252D02*
X79301979Y-116208252D01*
X79063884Y-115874919D02*
X79063884Y-116732061D01*
X79063884Y-116732061D02*
X79111503Y-116827300D01*
X79111503Y-116827300D02*
X79206741Y-116874919D01*
X79206741Y-116874919D02*
X79301979Y-116874919D01*
X79635313Y-116208252D02*
X79635313Y-116874919D01*
X79635313Y-116303490D02*
X79682932Y-116255871D01*
X79682932Y-116255871D02*
X79778170Y-116208252D01*
X79778170Y-116208252D02*
X79921027Y-116208252D01*
X79921027Y-116208252D02*
X80016265Y-116255871D01*
X80016265Y-116255871D02*
X80063884Y-116351109D01*
X80063884Y-116351109D02*
X80063884Y-116874919D01*
X80968646Y-116208252D02*
X80968646Y-116874919D01*
X80730551Y-115827300D02*
X80492456Y-116541585D01*
X80492456Y-116541585D02*
X81111503Y-116541585D01*
X82254361Y-116874919D02*
X82254361Y-115874919D01*
X82254361Y-115874919D02*
X82635313Y-115874919D01*
X82635313Y-115874919D02*
X82730551Y-115922538D01*
X82730551Y-115922538D02*
X82778170Y-115970157D01*
X82778170Y-115970157D02*
X82825789Y-116065395D01*
X82825789Y-116065395D02*
X82825789Y-116208252D01*
X82825789Y-116208252D02*
X82778170Y-116303490D01*
X82778170Y-116303490D02*
X82730551Y-116351109D01*
X82730551Y-116351109D02*
X82635313Y-116398728D01*
X82635313Y-116398728D02*
X82254361Y-116398728D01*
X83730551Y-116874919D02*
X83254361Y-116874919D01*
X83254361Y-116874919D02*
X83254361Y-115874919D01*
X84063885Y-116874919D02*
X84063885Y-115874919D01*
X84063885Y-115874919D02*
X84301980Y-115874919D01*
X84301980Y-115874919D02*
X84444837Y-115922538D01*
X84444837Y-115922538D02*
X84540075Y-116017776D01*
X84540075Y-116017776D02*
X84587694Y-116113014D01*
X84587694Y-116113014D02*
X84635313Y-116303490D01*
X84635313Y-116303490D02*
X84635313Y-116446347D01*
X84635313Y-116446347D02*
X84587694Y-116636823D01*
X84587694Y-116636823D02*
X84540075Y-116732061D01*
X84540075Y-116732061D02*
X84444837Y-116827300D01*
X84444837Y-116827300D02*
X84301980Y-116874919D01*
X84301980Y-116874919D02*
X84063885Y-116874919D01*
X84968647Y-115874919D02*
X85206742Y-116874919D01*
X85206742Y-116874919D02*
X85397218Y-116160633D01*
X85397218Y-116160633D02*
X85587694Y-116874919D01*
X85587694Y-116874919D02*
X85825790Y-115874919D01*
X86206742Y-116874919D02*
X86206742Y-115874919D01*
X86206742Y-115874919D02*
X86778170Y-116874919D01*
X86778170Y-116874919D02*
X86778170Y-115874919D01*
X83768646Y-118524919D02*
X84387693Y-118524919D01*
X84387693Y-118524919D02*
X84054360Y-118905871D01*
X84054360Y-118905871D02*
X84197217Y-118905871D01*
X84197217Y-118905871D02*
X84292455Y-118953490D01*
X84292455Y-118953490D02*
X84340074Y-119001109D01*
X84340074Y-119001109D02*
X84387693Y-119096347D01*
X84387693Y-119096347D02*
X84387693Y-119334442D01*
X84387693Y-119334442D02*
X84340074Y-119429680D01*
X84340074Y-119429680D02*
X84292455Y-119477300D01*
X84292455Y-119477300D02*
X84197217Y-119524919D01*
X84197217Y-119524919D02*
X83911503Y-119524919D01*
X83911503Y-119524919D02*
X83816265Y-119477300D01*
X83816265Y-119477300D02*
X83768646Y-119429680D01*
X84816265Y-119429680D02*
X84863884Y-119477300D01*
X84863884Y-119477300D02*
X84816265Y-119524919D01*
X84816265Y-119524919D02*
X84768646Y-119477300D01*
X84768646Y-119477300D02*
X84816265Y-119429680D01*
X84816265Y-119429680D02*
X84816265Y-119524919D01*
X85197217Y-118524919D02*
X85816264Y-118524919D01*
X85816264Y-118524919D02*
X85482931Y-118905871D01*
X85482931Y-118905871D02*
X85625788Y-118905871D01*
X85625788Y-118905871D02*
X85721026Y-118953490D01*
X85721026Y-118953490D02*
X85768645Y-119001109D01*
X85768645Y-119001109D02*
X85816264Y-119096347D01*
X85816264Y-119096347D02*
X85816264Y-119334442D01*
X85816264Y-119334442D02*
X85768645Y-119429680D01*
X85768645Y-119429680D02*
X85721026Y-119477300D01*
X85721026Y-119477300D02*
X85625788Y-119524919D01*
X85625788Y-119524919D02*
X85340074Y-119524919D01*
X85340074Y-119524919D02*
X85244836Y-119477300D01*
X85244836Y-119477300D02*
X85197217Y-119429680D01*
X86101979Y-118524919D02*
X86435312Y-119524919D01*
X86435312Y-119524919D02*
X86768645Y-118524919D01*
X84754360Y-103498728D02*
X84754360Y-103974919D01*
X84421027Y-102974919D02*
X84754360Y-103498728D01*
X84754360Y-103498728D02*
X85087693Y-102974919D01*
X84468646Y-105324919D02*
X85135312Y-106324919D01*
X85135312Y-105324919D02*
X84468646Y-106324919D01*
X78397217Y-108801109D02*
X78540074Y-108848728D01*
X78540074Y-108848728D02*
X78587693Y-108896347D01*
X78587693Y-108896347D02*
X78635312Y-108991585D01*
X78635312Y-108991585D02*
X78635312Y-109134442D01*
X78635312Y-109134442D02*
X78587693Y-109229680D01*
X78587693Y-109229680D02*
X78540074Y-109277300D01*
X78540074Y-109277300D02*
X78444836Y-109324919D01*
X78444836Y-109324919D02*
X78063884Y-109324919D01*
X78063884Y-109324919D02*
X78063884Y-108324919D01*
X78063884Y-108324919D02*
X78397217Y-108324919D01*
X78397217Y-108324919D02*
X78492455Y-108372538D01*
X78492455Y-108372538D02*
X78540074Y-108420157D01*
X78540074Y-108420157D02*
X78587693Y-108515395D01*
X78587693Y-108515395D02*
X78587693Y-108610633D01*
X78587693Y-108610633D02*
X78540074Y-108705871D01*
X78540074Y-108705871D02*
X78492455Y-108753490D01*
X78492455Y-108753490D02*
X78397217Y-108801109D01*
X78397217Y-108801109D02*
X78063884Y-108801109D01*
X78921027Y-108658252D02*
X79301979Y-108658252D01*
X79063884Y-108324919D02*
X79063884Y-109182061D01*
X79063884Y-109182061D02*
X79111503Y-109277300D01*
X79111503Y-109277300D02*
X79206741Y-109324919D01*
X79206741Y-109324919D02*
X79301979Y-109324919D01*
X79635313Y-108658252D02*
X79635313Y-109324919D01*
X79635313Y-108753490D02*
X79682932Y-108705871D01*
X79682932Y-108705871D02*
X79778170Y-108658252D01*
X79778170Y-108658252D02*
X79921027Y-108658252D01*
X79921027Y-108658252D02*
X80016265Y-108705871D01*
X80016265Y-108705871D02*
X80063884Y-108801109D01*
X80063884Y-108801109D02*
X80063884Y-109324919D01*
X81063884Y-109324919D02*
X80492456Y-109324919D01*
X80778170Y-109324919D02*
X80778170Y-108324919D01*
X80778170Y-108324919D02*
X80682932Y-108467776D01*
X80682932Y-108467776D02*
X80587694Y-108563014D01*
X80587694Y-108563014D02*
X80492456Y-108610633D01*
X82254361Y-109324919D02*
X82254361Y-108324919D01*
X82254361Y-108324919D02*
X82635313Y-108324919D01*
X82635313Y-108324919D02*
X82730551Y-108372538D01*
X82730551Y-108372538D02*
X82778170Y-108420157D01*
X82778170Y-108420157D02*
X82825789Y-108515395D01*
X82825789Y-108515395D02*
X82825789Y-108658252D01*
X82825789Y-108658252D02*
X82778170Y-108753490D01*
X82778170Y-108753490D02*
X82730551Y-108801109D01*
X82730551Y-108801109D02*
X82635313Y-108848728D01*
X82635313Y-108848728D02*
X82254361Y-108848728D01*
X83730551Y-109324919D02*
X83254361Y-109324919D01*
X83254361Y-109324919D02*
X83254361Y-108324919D01*
X84063885Y-109324919D02*
X84063885Y-108324919D01*
X84063885Y-108324919D02*
X84301980Y-108324919D01*
X84301980Y-108324919D02*
X84444837Y-108372538D01*
X84444837Y-108372538D02*
X84540075Y-108467776D01*
X84540075Y-108467776D02*
X84587694Y-108563014D01*
X84587694Y-108563014D02*
X84635313Y-108753490D01*
X84635313Y-108753490D02*
X84635313Y-108896347D01*
X84635313Y-108896347D02*
X84587694Y-109086823D01*
X84587694Y-109086823D02*
X84540075Y-109182061D01*
X84540075Y-109182061D02*
X84444837Y-109277300D01*
X84444837Y-109277300D02*
X84301980Y-109324919D01*
X84301980Y-109324919D02*
X84063885Y-109324919D01*
X84968647Y-108324919D02*
X85206742Y-109324919D01*
X85206742Y-109324919D02*
X85397218Y-108610633D01*
X85397218Y-108610633D02*
X85587694Y-109324919D01*
X85587694Y-109324919D02*
X85825790Y-108324919D01*
X86206742Y-109324919D02*
X86206742Y-108324919D01*
X86206742Y-108324919D02*
X86778170Y-109324919D01*
X86778170Y-109324919D02*
X86778170Y-108324919D01*
X104990000Y-67552500D02*
X130990000Y-67552500D01*
X130990000Y-83552500D01*
X104990000Y-83552500D01*
X104990000Y-67552500D01*
X104990000Y-67552500D02*
X124990000Y-67552500D01*
X124990000Y-83552500D01*
X104990000Y-83552500D01*
X104990000Y-67552500D01*
X115550000Y-86840000D02*
X129550000Y-86840000D01*
X129550000Y-99840000D01*
X115550000Y-99840000D01*
X115550000Y-86840000D01*
D11*
X99834819Y-80175357D02*
X99358628Y-80508690D01*
X99834819Y-80746785D02*
X98834819Y-80746785D01*
X98834819Y-80746785D02*
X98834819Y-80365833D01*
X98834819Y-80365833D02*
X98882438Y-80270595D01*
X98882438Y-80270595D02*
X98930057Y-80222976D01*
X98930057Y-80222976D02*
X99025295Y-80175357D01*
X99025295Y-80175357D02*
X99168152Y-80175357D01*
X99168152Y-80175357D02*
X99263390Y-80222976D01*
X99263390Y-80222976D02*
X99311009Y-80270595D01*
X99311009Y-80270595D02*
X99358628Y-80365833D01*
X99358628Y-80365833D02*
X99358628Y-80746785D01*
X99834819Y-79222976D02*
X99834819Y-79794404D01*
X99834819Y-79508690D02*
X98834819Y-79508690D01*
X98834819Y-79508690D02*
X98977676Y-79603928D01*
X98977676Y-79603928D02*
X99072914Y-79699166D01*
X99072914Y-79699166D02*
X99120533Y-79794404D01*
X98834819Y-78889642D02*
X98834819Y-78222976D01*
X98834819Y-78222976D02*
X99834819Y-78651547D01*
X105984819Y-80195357D02*
X105508628Y-80528690D01*
X105984819Y-80766785D02*
X104984819Y-80766785D01*
X104984819Y-80766785D02*
X104984819Y-80385833D01*
X104984819Y-80385833D02*
X105032438Y-80290595D01*
X105032438Y-80290595D02*
X105080057Y-80242976D01*
X105080057Y-80242976D02*
X105175295Y-80195357D01*
X105175295Y-80195357D02*
X105318152Y-80195357D01*
X105318152Y-80195357D02*
X105413390Y-80242976D01*
X105413390Y-80242976D02*
X105461009Y-80290595D01*
X105461009Y-80290595D02*
X105508628Y-80385833D01*
X105508628Y-80385833D02*
X105508628Y-80766785D01*
X105984819Y-79242976D02*
X105984819Y-79814404D01*
X105984819Y-79528690D02*
X104984819Y-79528690D01*
X104984819Y-79528690D02*
X105127676Y-79623928D01*
X105127676Y-79623928D02*
X105222914Y-79719166D01*
X105222914Y-79719166D02*
X105270533Y-79814404D01*
X105413390Y-78671547D02*
X105365771Y-78766785D01*
X105365771Y-78766785D02*
X105318152Y-78814404D01*
X105318152Y-78814404D02*
X105222914Y-78862023D01*
X105222914Y-78862023D02*
X105175295Y-78862023D01*
X105175295Y-78862023D02*
X105080057Y-78814404D01*
X105080057Y-78814404D02*
X105032438Y-78766785D01*
X105032438Y-78766785D02*
X104984819Y-78671547D01*
X104984819Y-78671547D02*
X104984819Y-78481071D01*
X104984819Y-78481071D02*
X105032438Y-78385833D01*
X105032438Y-78385833D02*
X105080057Y-78338214D01*
X105080057Y-78338214D02*
X105175295Y-78290595D01*
X105175295Y-78290595D02*
X105222914Y-78290595D01*
X105222914Y-78290595D02*
X105318152Y-78338214D01*
X105318152Y-78338214D02*
X105365771Y-78385833D01*
X105365771Y-78385833D02*
X105413390Y-78481071D01*
X105413390Y-78481071D02*
X105413390Y-78671547D01*
X105413390Y-78671547D02*
X105461009Y-78766785D01*
X105461009Y-78766785D02*
X105508628Y-78814404D01*
X105508628Y-78814404D02*
X105603866Y-78862023D01*
X105603866Y-78862023D02*
X105794342Y-78862023D01*
X105794342Y-78862023D02*
X105889580Y-78814404D01*
X105889580Y-78814404D02*
X105937200Y-78766785D01*
X105937200Y-78766785D02*
X105984819Y-78671547D01*
X105984819Y-78671547D02*
X105984819Y-78481071D01*
X105984819Y-78481071D02*
X105937200Y-78385833D01*
X105937200Y-78385833D02*
X105889580Y-78338214D01*
X105889580Y-78338214D02*
X105794342Y-78290595D01*
X105794342Y-78290595D02*
X105603866Y-78290595D01*
X105603866Y-78290595D02*
X105508628Y-78338214D01*
X105508628Y-78338214D02*
X105461009Y-78385833D01*
X105461009Y-78385833D02*
X105413390Y-78481071D01*
X88437642Y-61142319D02*
X88104309Y-60666128D01*
X87866214Y-61142319D02*
X87866214Y-60142319D01*
X87866214Y-60142319D02*
X88247166Y-60142319D01*
X88247166Y-60142319D02*
X88342404Y-60189938D01*
X88342404Y-60189938D02*
X88390023Y-60237557D01*
X88390023Y-60237557D02*
X88437642Y-60332795D01*
X88437642Y-60332795D02*
X88437642Y-60475652D01*
X88437642Y-60475652D02*
X88390023Y-60570890D01*
X88390023Y-60570890D02*
X88342404Y-60618509D01*
X88342404Y-60618509D02*
X88247166Y-60666128D01*
X88247166Y-60666128D02*
X87866214Y-60666128D01*
X89390023Y-61142319D02*
X88818595Y-61142319D01*
X89104309Y-61142319D02*
X89104309Y-60142319D01*
X89104309Y-60142319D02*
X89009071Y-60285176D01*
X89009071Y-60285176D02*
X88913833Y-60380414D01*
X88913833Y-60380414D02*
X88818595Y-60428033D01*
X90294785Y-60142319D02*
X89818595Y-60142319D01*
X89818595Y-60142319D02*
X89770976Y-60618509D01*
X89770976Y-60618509D02*
X89818595Y-60570890D01*
X89818595Y-60570890D02*
X89913833Y-60523271D01*
X89913833Y-60523271D02*
X90151928Y-60523271D01*
X90151928Y-60523271D02*
X90247166Y-60570890D01*
X90247166Y-60570890D02*
X90294785Y-60618509D01*
X90294785Y-60618509D02*
X90342404Y-60713747D01*
X90342404Y-60713747D02*
X90342404Y-60951842D01*
X90342404Y-60951842D02*
X90294785Y-61047080D01*
X90294785Y-61047080D02*
X90247166Y-61094700D01*
X90247166Y-61094700D02*
X90151928Y-61142319D01*
X90151928Y-61142319D02*
X89913833Y-61142319D01*
X89913833Y-61142319D02*
X89818595Y-61094700D01*
X89818595Y-61094700D02*
X89770976Y-61047080D01*
X88773833Y-73042319D02*
X88440500Y-72566128D01*
X88202405Y-73042319D02*
X88202405Y-72042319D01*
X88202405Y-72042319D02*
X88583357Y-72042319D01*
X88583357Y-72042319D02*
X88678595Y-72089938D01*
X88678595Y-72089938D02*
X88726214Y-72137557D01*
X88726214Y-72137557D02*
X88773833Y-72232795D01*
X88773833Y-72232795D02*
X88773833Y-72375652D01*
X88773833Y-72375652D02*
X88726214Y-72470890D01*
X88726214Y-72470890D02*
X88678595Y-72518509D01*
X88678595Y-72518509D02*
X88583357Y-72566128D01*
X88583357Y-72566128D02*
X88202405Y-72566128D01*
X89107167Y-72042319D02*
X89773833Y-72042319D01*
X89773833Y-72042319D02*
X89345262Y-73042319D01*
X88447642Y-55082319D02*
X88114309Y-54606128D01*
X87876214Y-55082319D02*
X87876214Y-54082319D01*
X87876214Y-54082319D02*
X88257166Y-54082319D01*
X88257166Y-54082319D02*
X88352404Y-54129938D01*
X88352404Y-54129938D02*
X88400023Y-54177557D01*
X88400023Y-54177557D02*
X88447642Y-54272795D01*
X88447642Y-54272795D02*
X88447642Y-54415652D01*
X88447642Y-54415652D02*
X88400023Y-54510890D01*
X88400023Y-54510890D02*
X88352404Y-54558509D01*
X88352404Y-54558509D02*
X88257166Y-54606128D01*
X88257166Y-54606128D02*
X87876214Y-54606128D01*
X89400023Y-55082319D02*
X88828595Y-55082319D01*
X89114309Y-55082319D02*
X89114309Y-54082319D01*
X89114309Y-54082319D02*
X89019071Y-54225176D01*
X89019071Y-54225176D02*
X88923833Y-54320414D01*
X88923833Y-54320414D02*
X88828595Y-54368033D01*
X89733357Y-54082319D02*
X90352404Y-54082319D01*
X90352404Y-54082319D02*
X90019071Y-54463271D01*
X90019071Y-54463271D02*
X90161928Y-54463271D01*
X90161928Y-54463271D02*
X90257166Y-54510890D01*
X90257166Y-54510890D02*
X90304785Y-54558509D01*
X90304785Y-54558509D02*
X90352404Y-54653747D01*
X90352404Y-54653747D02*
X90352404Y-54891842D01*
X90352404Y-54891842D02*
X90304785Y-54987080D01*
X90304785Y-54987080D02*
X90257166Y-55034700D01*
X90257166Y-55034700D02*
X90161928Y-55082319D01*
X90161928Y-55082319D02*
X89876214Y-55082319D01*
X89876214Y-55082319D02*
X89780976Y-55034700D01*
X89780976Y-55034700D02*
X89733357Y-54987080D01*
X88317642Y-67042319D02*
X87984309Y-66566128D01*
X87746214Y-67042319D02*
X87746214Y-66042319D01*
X87746214Y-66042319D02*
X88127166Y-66042319D01*
X88127166Y-66042319D02*
X88222404Y-66089938D01*
X88222404Y-66089938D02*
X88270023Y-66137557D01*
X88270023Y-66137557D02*
X88317642Y-66232795D01*
X88317642Y-66232795D02*
X88317642Y-66375652D01*
X88317642Y-66375652D02*
X88270023Y-66470890D01*
X88270023Y-66470890D02*
X88222404Y-66518509D01*
X88222404Y-66518509D02*
X88127166Y-66566128D01*
X88127166Y-66566128D02*
X87746214Y-66566128D01*
X89270023Y-67042319D02*
X88698595Y-67042319D01*
X88984309Y-67042319D02*
X88984309Y-66042319D01*
X88984309Y-66042319D02*
X88889071Y-66185176D01*
X88889071Y-66185176D02*
X88793833Y-66280414D01*
X88793833Y-66280414D02*
X88698595Y-66328033D01*
X90127166Y-66375652D02*
X90127166Y-67042319D01*
X89889071Y-65994700D02*
X89650976Y-66708985D01*
X89650976Y-66708985D02*
X90270023Y-66708985D01*
X88447642Y-49092319D02*
X88114309Y-48616128D01*
X87876214Y-49092319D02*
X87876214Y-48092319D01*
X87876214Y-48092319D02*
X88257166Y-48092319D01*
X88257166Y-48092319D02*
X88352404Y-48139938D01*
X88352404Y-48139938D02*
X88400023Y-48187557D01*
X88400023Y-48187557D02*
X88447642Y-48282795D01*
X88447642Y-48282795D02*
X88447642Y-48425652D01*
X88447642Y-48425652D02*
X88400023Y-48520890D01*
X88400023Y-48520890D02*
X88352404Y-48568509D01*
X88352404Y-48568509D02*
X88257166Y-48616128D01*
X88257166Y-48616128D02*
X87876214Y-48616128D01*
X89400023Y-49092319D02*
X88828595Y-49092319D01*
X89114309Y-49092319D02*
X89114309Y-48092319D01*
X89114309Y-48092319D02*
X89019071Y-48235176D01*
X89019071Y-48235176D02*
X88923833Y-48330414D01*
X88923833Y-48330414D02*
X88828595Y-48378033D01*
X90257166Y-48092319D02*
X90066690Y-48092319D01*
X90066690Y-48092319D02*
X89971452Y-48139938D01*
X89971452Y-48139938D02*
X89923833Y-48187557D01*
X89923833Y-48187557D02*
X89828595Y-48330414D01*
X89828595Y-48330414D02*
X89780976Y-48520890D01*
X89780976Y-48520890D02*
X89780976Y-48901842D01*
X89780976Y-48901842D02*
X89828595Y-48997080D01*
X89828595Y-48997080D02*
X89876214Y-49044700D01*
X89876214Y-49044700D02*
X89971452Y-49092319D01*
X89971452Y-49092319D02*
X90161928Y-49092319D01*
X90161928Y-49092319D02*
X90257166Y-49044700D01*
X90257166Y-49044700D02*
X90304785Y-48997080D01*
X90304785Y-48997080D02*
X90352404Y-48901842D01*
X90352404Y-48901842D02*
X90352404Y-48663747D01*
X90352404Y-48663747D02*
X90304785Y-48568509D01*
X90304785Y-48568509D02*
X90257166Y-48520890D01*
X90257166Y-48520890D02*
X90161928Y-48473271D01*
X90161928Y-48473271D02*
X89971452Y-48473271D01*
X89971452Y-48473271D02*
X89876214Y-48520890D01*
X89876214Y-48520890D02*
X89828595Y-48568509D01*
X89828595Y-48568509D02*
X89780976Y-48663747D01*
X129734819Y-40599047D02*
X129734819Y-41075237D01*
X129734819Y-41075237D02*
X128734819Y-41075237D01*
X129211009Y-40265713D02*
X129211009Y-39932380D01*
X129734819Y-39789523D02*
X129734819Y-40265713D01*
X129734819Y-40265713D02*
X128734819Y-40265713D01*
X128734819Y-40265713D02*
X128734819Y-39789523D01*
X129734819Y-39360951D02*
X128734819Y-39360951D01*
X128734819Y-39360951D02*
X128734819Y-39122856D01*
X128734819Y-39122856D02*
X128782438Y-38979999D01*
X128782438Y-38979999D02*
X128877676Y-38884761D01*
X128877676Y-38884761D02*
X128972914Y-38837142D01*
X128972914Y-38837142D02*
X129163390Y-38789523D01*
X129163390Y-38789523D02*
X129306247Y-38789523D01*
X129306247Y-38789523D02*
X129496723Y-38837142D01*
X129496723Y-38837142D02*
X129591961Y-38884761D01*
X129591961Y-38884761D02*
X129687200Y-38979999D01*
X129687200Y-38979999D02*
X129734819Y-39122856D01*
X129734819Y-39122856D02*
X129734819Y-39360951D01*
X129734819Y-37837142D02*
X129734819Y-38408570D01*
X129734819Y-38122856D02*
X128734819Y-38122856D01*
X128734819Y-38122856D02*
X128877676Y-38218094D01*
X128877676Y-38218094D02*
X128972914Y-38313332D01*
X128972914Y-38313332D02*
X129020533Y-38408570D01*
X88326666Y-123137319D02*
X88326666Y-123851604D01*
X88326666Y-123851604D02*
X88279047Y-123994461D01*
X88279047Y-123994461D02*
X88183809Y-124089700D01*
X88183809Y-124089700D02*
X88040952Y-124137319D01*
X88040952Y-124137319D02*
X87945714Y-124137319D01*
X88707619Y-123137319D02*
X89374285Y-123137319D01*
X89374285Y-123137319D02*
X88945714Y-124137319D01*
X116584819Y-79912857D02*
X116108628Y-80246190D01*
X116584819Y-80484285D02*
X115584819Y-80484285D01*
X115584819Y-80484285D02*
X115584819Y-80103333D01*
X115584819Y-80103333D02*
X115632438Y-80008095D01*
X115632438Y-80008095D02*
X115680057Y-79960476D01*
X115680057Y-79960476D02*
X115775295Y-79912857D01*
X115775295Y-79912857D02*
X115918152Y-79912857D01*
X115918152Y-79912857D02*
X116013390Y-79960476D01*
X116013390Y-79960476D02*
X116061009Y-80008095D01*
X116061009Y-80008095D02*
X116108628Y-80103333D01*
X116108628Y-80103333D02*
X116108628Y-80484285D01*
X115680057Y-79531904D02*
X115632438Y-79484285D01*
X115632438Y-79484285D02*
X115584819Y-79389047D01*
X115584819Y-79389047D02*
X115584819Y-79150952D01*
X115584819Y-79150952D02*
X115632438Y-79055714D01*
X115632438Y-79055714D02*
X115680057Y-79008095D01*
X115680057Y-79008095D02*
X115775295Y-78960476D01*
X115775295Y-78960476D02*
X115870533Y-78960476D01*
X115870533Y-78960476D02*
X116013390Y-79008095D01*
X116013390Y-79008095D02*
X116584819Y-79579523D01*
X116584819Y-79579523D02*
X116584819Y-78960476D01*
X115584819Y-78341428D02*
X115584819Y-78246190D01*
X115584819Y-78246190D02*
X115632438Y-78150952D01*
X115632438Y-78150952D02*
X115680057Y-78103333D01*
X115680057Y-78103333D02*
X115775295Y-78055714D01*
X115775295Y-78055714D02*
X115965771Y-78008095D01*
X115965771Y-78008095D02*
X116203866Y-78008095D01*
X116203866Y-78008095D02*
X116394342Y-78055714D01*
X116394342Y-78055714D02*
X116489580Y-78103333D01*
X116489580Y-78103333D02*
X116537200Y-78150952D01*
X116537200Y-78150952D02*
X116584819Y-78246190D01*
X116584819Y-78246190D02*
X116584819Y-78341428D01*
X116584819Y-78341428D02*
X116537200Y-78436666D01*
X116537200Y-78436666D02*
X116489580Y-78484285D01*
X116489580Y-78484285D02*
X116394342Y-78531904D01*
X116394342Y-78531904D02*
X116203866Y-78579523D01*
X116203866Y-78579523D02*
X115965771Y-78579523D01*
X115965771Y-78579523D02*
X115775295Y-78531904D01*
X115775295Y-78531904D02*
X115680057Y-78484285D01*
X115680057Y-78484285D02*
X115632438Y-78436666D01*
X115632438Y-78436666D02*
X115584819Y-78341428D01*
X112534819Y-79912857D02*
X112058628Y-80246190D01*
X112534819Y-80484285D02*
X111534819Y-80484285D01*
X111534819Y-80484285D02*
X111534819Y-80103333D01*
X111534819Y-80103333D02*
X111582438Y-80008095D01*
X111582438Y-80008095D02*
X111630057Y-79960476D01*
X111630057Y-79960476D02*
X111725295Y-79912857D01*
X111725295Y-79912857D02*
X111868152Y-79912857D01*
X111868152Y-79912857D02*
X111963390Y-79960476D01*
X111963390Y-79960476D02*
X112011009Y-80008095D01*
X112011009Y-80008095D02*
X112058628Y-80103333D01*
X112058628Y-80103333D02*
X112058628Y-80484285D01*
X112534819Y-78960476D02*
X112534819Y-79531904D01*
X112534819Y-79246190D02*
X111534819Y-79246190D01*
X111534819Y-79246190D02*
X111677676Y-79341428D01*
X111677676Y-79341428D02*
X111772914Y-79436666D01*
X111772914Y-79436666D02*
X111820533Y-79531904D01*
X112534819Y-78484285D02*
X112534819Y-78293809D01*
X112534819Y-78293809D02*
X112487200Y-78198571D01*
X112487200Y-78198571D02*
X112439580Y-78150952D01*
X112439580Y-78150952D02*
X112296723Y-78055714D01*
X112296723Y-78055714D02*
X112106247Y-78008095D01*
X112106247Y-78008095D02*
X111725295Y-78008095D01*
X111725295Y-78008095D02*
X111630057Y-78055714D01*
X111630057Y-78055714D02*
X111582438Y-78103333D01*
X111582438Y-78103333D02*
X111534819Y-78198571D01*
X111534819Y-78198571D02*
X111534819Y-78389047D01*
X111534819Y-78389047D02*
X111582438Y-78484285D01*
X111582438Y-78484285D02*
X111630057Y-78531904D01*
X111630057Y-78531904D02*
X111725295Y-78579523D01*
X111725295Y-78579523D02*
X111963390Y-78579523D01*
X111963390Y-78579523D02*
X112058628Y-78531904D01*
X112058628Y-78531904D02*
X112106247Y-78484285D01*
X112106247Y-78484285D02*
X112153866Y-78389047D01*
X112153866Y-78389047D02*
X112153866Y-78198571D01*
X112153866Y-78198571D02*
X112106247Y-78103333D01*
X112106247Y-78103333D02*
X112058628Y-78055714D01*
X112058628Y-78055714D02*
X111963390Y-78008095D01*
X99170080Y-45374166D02*
X99217700Y-45421785D01*
X99217700Y-45421785D02*
X99265319Y-45564642D01*
X99265319Y-45564642D02*
X99265319Y-45659880D01*
X99265319Y-45659880D02*
X99217700Y-45802737D01*
X99217700Y-45802737D02*
X99122461Y-45897975D01*
X99122461Y-45897975D02*
X99027223Y-45945594D01*
X99027223Y-45945594D02*
X98836747Y-45993213D01*
X98836747Y-45993213D02*
X98693890Y-45993213D01*
X98693890Y-45993213D02*
X98503414Y-45945594D01*
X98503414Y-45945594D02*
X98408176Y-45897975D01*
X98408176Y-45897975D02*
X98312938Y-45802737D01*
X98312938Y-45802737D02*
X98265319Y-45659880D01*
X98265319Y-45659880D02*
X98265319Y-45564642D01*
X98265319Y-45564642D02*
X98312938Y-45421785D01*
X98312938Y-45421785D02*
X98360557Y-45374166D01*
X98265319Y-45040832D02*
X98265319Y-44374166D01*
X98265319Y-44374166D02*
X99265319Y-44802737D01*
X83561905Y-133954819D02*
X83561905Y-132954819D01*
X83561905Y-132954819D02*
X83800000Y-132954819D01*
X83800000Y-132954819D02*
X83942857Y-133002438D01*
X83942857Y-133002438D02*
X84038095Y-133097676D01*
X84038095Y-133097676D02*
X84085714Y-133192914D01*
X84085714Y-133192914D02*
X84133333Y-133383390D01*
X84133333Y-133383390D02*
X84133333Y-133526247D01*
X84133333Y-133526247D02*
X84085714Y-133716723D01*
X84085714Y-133716723D02*
X84038095Y-133811961D01*
X84038095Y-133811961D02*
X83942857Y-133907200D01*
X83942857Y-133907200D02*
X83800000Y-133954819D01*
X83800000Y-133954819D02*
X83561905Y-133954819D01*
X85085714Y-133954819D02*
X84514286Y-133954819D01*
X84800000Y-133954819D02*
X84800000Y-132954819D01*
X84800000Y-132954819D02*
X84704762Y-133097676D01*
X84704762Y-133097676D02*
X84609524Y-133192914D01*
X84609524Y-133192914D02*
X84514286Y-133240533D01*
X88193833Y-48567080D02*
X88146214Y-48614700D01*
X88146214Y-48614700D02*
X88003357Y-48662319D01*
X88003357Y-48662319D02*
X87908119Y-48662319D01*
X87908119Y-48662319D02*
X87765262Y-48614700D01*
X87765262Y-48614700D02*
X87670024Y-48519461D01*
X87670024Y-48519461D02*
X87622405Y-48424223D01*
X87622405Y-48424223D02*
X87574786Y-48233747D01*
X87574786Y-48233747D02*
X87574786Y-48090890D01*
X87574786Y-48090890D02*
X87622405Y-47900414D01*
X87622405Y-47900414D02*
X87670024Y-47805176D01*
X87670024Y-47805176D02*
X87765262Y-47709938D01*
X87765262Y-47709938D02*
X87908119Y-47662319D01*
X87908119Y-47662319D02*
X88003357Y-47662319D01*
X88003357Y-47662319D02*
X88146214Y-47709938D01*
X88146214Y-47709938D02*
X88193833Y-47757557D01*
X89050976Y-47662319D02*
X88860500Y-47662319D01*
X88860500Y-47662319D02*
X88765262Y-47709938D01*
X88765262Y-47709938D02*
X88717643Y-47757557D01*
X88717643Y-47757557D02*
X88622405Y-47900414D01*
X88622405Y-47900414D02*
X88574786Y-48090890D01*
X88574786Y-48090890D02*
X88574786Y-48471842D01*
X88574786Y-48471842D02*
X88622405Y-48567080D01*
X88622405Y-48567080D02*
X88670024Y-48614700D01*
X88670024Y-48614700D02*
X88765262Y-48662319D01*
X88765262Y-48662319D02*
X88955738Y-48662319D01*
X88955738Y-48662319D02*
X89050976Y-48614700D01*
X89050976Y-48614700D02*
X89098595Y-48567080D01*
X89098595Y-48567080D02*
X89146214Y-48471842D01*
X89146214Y-48471842D02*
X89146214Y-48233747D01*
X89146214Y-48233747D02*
X89098595Y-48138509D01*
X89098595Y-48138509D02*
X89050976Y-48090890D01*
X89050976Y-48090890D02*
X88955738Y-48043271D01*
X88955738Y-48043271D02*
X88765262Y-48043271D01*
X88765262Y-48043271D02*
X88670024Y-48090890D01*
X88670024Y-48090890D02*
X88622405Y-48138509D01*
X88622405Y-48138509D02*
X88574786Y-48233747D01*
X135636666Y-124946819D02*
X135636666Y-125661104D01*
X135636666Y-125661104D02*
X135589047Y-125803961D01*
X135589047Y-125803961D02*
X135493809Y-125899200D01*
X135493809Y-125899200D02*
X135350952Y-125946819D01*
X135350952Y-125946819D02*
X135255714Y-125946819D01*
X136541428Y-125280152D02*
X136541428Y-125946819D01*
X136303333Y-124899200D02*
X136065238Y-125613485D01*
X136065238Y-125613485D02*
X136684285Y-125613485D01*
X116616666Y-84924819D02*
X116616666Y-85639104D01*
X116616666Y-85639104D02*
X116569047Y-85781961D01*
X116569047Y-85781961D02*
X116473809Y-85877200D01*
X116473809Y-85877200D02*
X116330952Y-85924819D01*
X116330952Y-85924819D02*
X116235714Y-85924819D01*
X117045238Y-85020057D02*
X117092857Y-84972438D01*
X117092857Y-84972438D02*
X117188095Y-84924819D01*
X117188095Y-84924819D02*
X117426190Y-84924819D01*
X117426190Y-84924819D02*
X117521428Y-84972438D01*
X117521428Y-84972438D02*
X117569047Y-85020057D01*
X117569047Y-85020057D02*
X117616666Y-85115295D01*
X117616666Y-85115295D02*
X117616666Y-85210533D01*
X117616666Y-85210533D02*
X117569047Y-85353390D01*
X117569047Y-85353390D02*
X116997619Y-85924819D01*
X116997619Y-85924819D02*
X117616666Y-85924819D01*
X103594819Y-69535833D02*
X104309104Y-69535833D01*
X104309104Y-69535833D02*
X104451961Y-69583452D01*
X104451961Y-69583452D02*
X104547200Y-69678690D01*
X104547200Y-69678690D02*
X104594819Y-69821547D01*
X104594819Y-69821547D02*
X104594819Y-69916785D01*
X103594819Y-69154880D02*
X103594819Y-68535833D01*
X103594819Y-68535833D02*
X103975771Y-68869166D01*
X103975771Y-68869166D02*
X103975771Y-68726309D01*
X103975771Y-68726309D02*
X104023390Y-68631071D01*
X104023390Y-68631071D02*
X104071009Y-68583452D01*
X104071009Y-68583452D02*
X104166247Y-68535833D01*
X104166247Y-68535833D02*
X104404342Y-68535833D01*
X104404342Y-68535833D02*
X104499580Y-68583452D01*
X104499580Y-68583452D02*
X104547200Y-68631071D01*
X104547200Y-68631071D02*
X104594819Y-68726309D01*
X104594819Y-68726309D02*
X104594819Y-69012023D01*
X104594819Y-69012023D02*
X104547200Y-69107261D01*
X104547200Y-69107261D02*
X104499580Y-69154880D01*
X124250476Y-124959319D02*
X124250476Y-125673604D01*
X124250476Y-125673604D02*
X124202857Y-125816461D01*
X124202857Y-125816461D02*
X124107619Y-125911700D01*
X124107619Y-125911700D02*
X123964762Y-125959319D01*
X123964762Y-125959319D02*
X123869524Y-125959319D01*
X125250476Y-125959319D02*
X124679048Y-125959319D01*
X124964762Y-125959319D02*
X124964762Y-124959319D01*
X124964762Y-124959319D02*
X124869524Y-125102176D01*
X124869524Y-125102176D02*
X124774286Y-125197414D01*
X124774286Y-125197414D02*
X124679048Y-125245033D01*
X126202857Y-125959319D02*
X125631429Y-125959319D01*
X125917143Y-125959319D02*
X125917143Y-124959319D01*
X125917143Y-124959319D02*
X125821905Y-125102176D01*
X125821905Y-125102176D02*
X125726667Y-125197414D01*
X125726667Y-125197414D02*
X125631429Y-125245033D01*
X136714285Y-104268152D02*
X136714285Y-105268152D01*
X136714285Y-104315771D02*
X136809523Y-104268152D01*
X136809523Y-104268152D02*
X136999999Y-104268152D01*
X136999999Y-104268152D02*
X137095237Y-104315771D01*
X137095237Y-104315771D02*
X137142856Y-104363390D01*
X137142856Y-104363390D02*
X137190475Y-104458628D01*
X137190475Y-104458628D02*
X137190475Y-104744342D01*
X137190475Y-104744342D02*
X137142856Y-104839580D01*
X137142856Y-104839580D02*
X137095237Y-104887200D01*
X137095237Y-104887200D02*
X136999999Y-104934819D01*
X136999999Y-104934819D02*
X136809523Y-104934819D01*
X136809523Y-104934819D02*
X136714285Y-104887200D01*
X137761904Y-104934819D02*
X137666666Y-104887200D01*
X137666666Y-104887200D02*
X137619047Y-104839580D01*
X137619047Y-104839580D02*
X137571428Y-104744342D01*
X137571428Y-104744342D02*
X137571428Y-104458628D01*
X137571428Y-104458628D02*
X137619047Y-104363390D01*
X137619047Y-104363390D02*
X137666666Y-104315771D01*
X137666666Y-104315771D02*
X137761904Y-104268152D01*
X137761904Y-104268152D02*
X137904761Y-104268152D01*
X137904761Y-104268152D02*
X137999999Y-104315771D01*
X137999999Y-104315771D02*
X138047618Y-104363390D01*
X138047618Y-104363390D02*
X138095237Y-104458628D01*
X138095237Y-104458628D02*
X138095237Y-104744342D01*
X138095237Y-104744342D02*
X138047618Y-104839580D01*
X138047618Y-104839580D02*
X137999999Y-104887200D01*
X137999999Y-104887200D02*
X137904761Y-104934819D01*
X137904761Y-104934819D02*
X137761904Y-104934819D01*
X138380952Y-104268152D02*
X138761904Y-104268152D01*
X138523809Y-103934819D02*
X138523809Y-104791961D01*
X138523809Y-104791961D02*
X138571428Y-104887200D01*
X138571428Y-104887200D02*
X138666666Y-104934819D01*
X138666666Y-104934819D02*
X138761904Y-104934819D01*
X139809523Y-103887200D02*
X138952381Y-105172914D01*
X140095238Y-104887200D02*
X140190476Y-104934819D01*
X140190476Y-104934819D02*
X140380952Y-104934819D01*
X140380952Y-104934819D02*
X140476190Y-104887200D01*
X140476190Y-104887200D02*
X140523809Y-104791961D01*
X140523809Y-104791961D02*
X140523809Y-104744342D01*
X140523809Y-104744342D02*
X140476190Y-104649104D01*
X140476190Y-104649104D02*
X140380952Y-104601485D01*
X140380952Y-104601485D02*
X140238095Y-104601485D01*
X140238095Y-104601485D02*
X140142857Y-104553866D01*
X140142857Y-104553866D02*
X140095238Y-104458628D01*
X140095238Y-104458628D02*
X140095238Y-104411009D01*
X140095238Y-104411009D02*
X140142857Y-104315771D01*
X140142857Y-104315771D02*
X140238095Y-104268152D01*
X140238095Y-104268152D02*
X140380952Y-104268152D01*
X140380952Y-104268152D02*
X140476190Y-104315771D01*
X140857143Y-104268152D02*
X141047619Y-104934819D01*
X141047619Y-104934819D02*
X141238095Y-104458628D01*
X141238095Y-104458628D02*
X141428571Y-104934819D01*
X141428571Y-104934819D02*
X141619047Y-104268152D01*
X142000000Y-104934819D02*
X142000000Y-104268152D01*
X142000000Y-103934819D02*
X141952381Y-103982438D01*
X141952381Y-103982438D02*
X142000000Y-104030057D01*
X142000000Y-104030057D02*
X142047619Y-103982438D01*
X142047619Y-103982438D02*
X142000000Y-103934819D01*
X142000000Y-103934819D02*
X142000000Y-104030057D01*
X142333333Y-104268152D02*
X142714285Y-104268152D01*
X142476190Y-103934819D02*
X142476190Y-104791961D01*
X142476190Y-104791961D02*
X142523809Y-104887200D01*
X142523809Y-104887200D02*
X142619047Y-104934819D01*
X142619047Y-104934819D02*
X142714285Y-104934819D01*
X143476190Y-104887200D02*
X143380952Y-104934819D01*
X143380952Y-104934819D02*
X143190476Y-104934819D01*
X143190476Y-104934819D02*
X143095238Y-104887200D01*
X143095238Y-104887200D02*
X143047619Y-104839580D01*
X143047619Y-104839580D02*
X143000000Y-104744342D01*
X143000000Y-104744342D02*
X143000000Y-104458628D01*
X143000000Y-104458628D02*
X143047619Y-104363390D01*
X143047619Y-104363390D02*
X143095238Y-104315771D01*
X143095238Y-104315771D02*
X143190476Y-104268152D01*
X143190476Y-104268152D02*
X143380952Y-104268152D01*
X143380952Y-104268152D02*
X143476190Y-104315771D01*
X143904762Y-104934819D02*
X143904762Y-103934819D01*
X144333333Y-104934819D02*
X144333333Y-104411009D01*
X144333333Y-104411009D02*
X144285714Y-104315771D01*
X144285714Y-104315771D02*
X144190476Y-104268152D01*
X144190476Y-104268152D02*
X144047619Y-104268152D01*
X144047619Y-104268152D02*
X143952381Y-104315771D01*
X143952381Y-104315771D02*
X143904762Y-104363390D01*
X145333333Y-104934819D02*
X144761905Y-104934819D01*
X145047619Y-104934819D02*
X145047619Y-103934819D01*
X145047619Y-103934819D02*
X144952381Y-104077676D01*
X144952381Y-104077676D02*
X144857143Y-104172914D01*
X144857143Y-104172914D02*
X144761905Y-104220533D01*
X127250476Y-124959319D02*
X127250476Y-125673604D01*
X127250476Y-125673604D02*
X127202857Y-125816461D01*
X127202857Y-125816461D02*
X127107619Y-125911700D01*
X127107619Y-125911700D02*
X126964762Y-125959319D01*
X126964762Y-125959319D02*
X126869524Y-125959319D01*
X128250476Y-125959319D02*
X127679048Y-125959319D01*
X127964762Y-125959319D02*
X127964762Y-124959319D01*
X127964762Y-124959319D02*
X127869524Y-125102176D01*
X127869524Y-125102176D02*
X127774286Y-125197414D01*
X127774286Y-125197414D02*
X127679048Y-125245033D01*
X128631429Y-125054557D02*
X128679048Y-125006938D01*
X128679048Y-125006938D02*
X128774286Y-124959319D01*
X128774286Y-124959319D02*
X129012381Y-124959319D01*
X129012381Y-124959319D02*
X129107619Y-125006938D01*
X129107619Y-125006938D02*
X129155238Y-125054557D01*
X129155238Y-125054557D02*
X129202857Y-125149795D01*
X129202857Y-125149795D02*
X129202857Y-125245033D01*
X129202857Y-125245033D02*
X129155238Y-125387890D01*
X129155238Y-125387890D02*
X128583810Y-125959319D01*
X128583810Y-125959319D02*
X129202857Y-125959319D01*
X138140476Y-147796819D02*
X138140476Y-148511104D01*
X138140476Y-148511104D02*
X138092857Y-148653961D01*
X138092857Y-148653961D02*
X137997619Y-148749200D01*
X137997619Y-148749200D02*
X137854762Y-148796819D01*
X137854762Y-148796819D02*
X137759524Y-148796819D01*
X139140476Y-148796819D02*
X138569048Y-148796819D01*
X138854762Y-148796819D02*
X138854762Y-147796819D01*
X138854762Y-147796819D02*
X138759524Y-147939676D01*
X138759524Y-147939676D02*
X138664286Y-148034914D01*
X138664286Y-148034914D02*
X138569048Y-148082533D01*
X139997619Y-148130152D02*
X139997619Y-148796819D01*
X139759524Y-147749200D02*
X139521429Y-148463485D01*
X139521429Y-148463485D02*
X140140476Y-148463485D01*
X136864285Y-114118152D02*
X136864285Y-115118152D01*
X136864285Y-114165771D02*
X136959523Y-114118152D01*
X136959523Y-114118152D02*
X137149999Y-114118152D01*
X137149999Y-114118152D02*
X137245237Y-114165771D01*
X137245237Y-114165771D02*
X137292856Y-114213390D01*
X137292856Y-114213390D02*
X137340475Y-114308628D01*
X137340475Y-114308628D02*
X137340475Y-114594342D01*
X137340475Y-114594342D02*
X137292856Y-114689580D01*
X137292856Y-114689580D02*
X137245237Y-114737200D01*
X137245237Y-114737200D02*
X137149999Y-114784819D01*
X137149999Y-114784819D02*
X136959523Y-114784819D01*
X136959523Y-114784819D02*
X136864285Y-114737200D01*
X137911904Y-114784819D02*
X137816666Y-114737200D01*
X137816666Y-114737200D02*
X137769047Y-114689580D01*
X137769047Y-114689580D02*
X137721428Y-114594342D01*
X137721428Y-114594342D02*
X137721428Y-114308628D01*
X137721428Y-114308628D02*
X137769047Y-114213390D01*
X137769047Y-114213390D02*
X137816666Y-114165771D01*
X137816666Y-114165771D02*
X137911904Y-114118152D01*
X137911904Y-114118152D02*
X138054761Y-114118152D01*
X138054761Y-114118152D02*
X138149999Y-114165771D01*
X138149999Y-114165771D02*
X138197618Y-114213390D01*
X138197618Y-114213390D02*
X138245237Y-114308628D01*
X138245237Y-114308628D02*
X138245237Y-114594342D01*
X138245237Y-114594342D02*
X138197618Y-114689580D01*
X138197618Y-114689580D02*
X138149999Y-114737200D01*
X138149999Y-114737200D02*
X138054761Y-114784819D01*
X138054761Y-114784819D02*
X137911904Y-114784819D01*
X138530952Y-114118152D02*
X138911904Y-114118152D01*
X138673809Y-113784819D02*
X138673809Y-114641961D01*
X138673809Y-114641961D02*
X138721428Y-114737200D01*
X138721428Y-114737200D02*
X138816666Y-114784819D01*
X138816666Y-114784819D02*
X138911904Y-114784819D01*
X139959523Y-113737200D02*
X139102381Y-115022914D01*
X140245238Y-114737200D02*
X140340476Y-114784819D01*
X140340476Y-114784819D02*
X140530952Y-114784819D01*
X140530952Y-114784819D02*
X140626190Y-114737200D01*
X140626190Y-114737200D02*
X140673809Y-114641961D01*
X140673809Y-114641961D02*
X140673809Y-114594342D01*
X140673809Y-114594342D02*
X140626190Y-114499104D01*
X140626190Y-114499104D02*
X140530952Y-114451485D01*
X140530952Y-114451485D02*
X140388095Y-114451485D01*
X140388095Y-114451485D02*
X140292857Y-114403866D01*
X140292857Y-114403866D02*
X140245238Y-114308628D01*
X140245238Y-114308628D02*
X140245238Y-114261009D01*
X140245238Y-114261009D02*
X140292857Y-114165771D01*
X140292857Y-114165771D02*
X140388095Y-114118152D01*
X140388095Y-114118152D02*
X140530952Y-114118152D01*
X140530952Y-114118152D02*
X140626190Y-114165771D01*
X141007143Y-114118152D02*
X141197619Y-114784819D01*
X141197619Y-114784819D02*
X141388095Y-114308628D01*
X141388095Y-114308628D02*
X141578571Y-114784819D01*
X141578571Y-114784819D02*
X141769047Y-114118152D01*
X142150000Y-114784819D02*
X142150000Y-114118152D01*
X142150000Y-113784819D02*
X142102381Y-113832438D01*
X142102381Y-113832438D02*
X142150000Y-113880057D01*
X142150000Y-113880057D02*
X142197619Y-113832438D01*
X142197619Y-113832438D02*
X142150000Y-113784819D01*
X142150000Y-113784819D02*
X142150000Y-113880057D01*
X142483333Y-114118152D02*
X142864285Y-114118152D01*
X142626190Y-113784819D02*
X142626190Y-114641961D01*
X142626190Y-114641961D02*
X142673809Y-114737200D01*
X142673809Y-114737200D02*
X142769047Y-114784819D01*
X142769047Y-114784819D02*
X142864285Y-114784819D01*
X143626190Y-114737200D02*
X143530952Y-114784819D01*
X143530952Y-114784819D02*
X143340476Y-114784819D01*
X143340476Y-114784819D02*
X143245238Y-114737200D01*
X143245238Y-114737200D02*
X143197619Y-114689580D01*
X143197619Y-114689580D02*
X143150000Y-114594342D01*
X143150000Y-114594342D02*
X143150000Y-114308628D01*
X143150000Y-114308628D02*
X143197619Y-114213390D01*
X143197619Y-114213390D02*
X143245238Y-114165771D01*
X143245238Y-114165771D02*
X143340476Y-114118152D01*
X143340476Y-114118152D02*
X143530952Y-114118152D01*
X143530952Y-114118152D02*
X143626190Y-114165771D01*
X144054762Y-114784819D02*
X144054762Y-113784819D01*
X144483333Y-114784819D02*
X144483333Y-114261009D01*
X144483333Y-114261009D02*
X144435714Y-114165771D01*
X144435714Y-114165771D02*
X144340476Y-114118152D01*
X144340476Y-114118152D02*
X144197619Y-114118152D01*
X144197619Y-114118152D02*
X144102381Y-114165771D01*
X144102381Y-114165771D02*
X144054762Y-114213390D01*
X144911905Y-113880057D02*
X144959524Y-113832438D01*
X144959524Y-113832438D02*
X145054762Y-113784819D01*
X145054762Y-113784819D02*
X145292857Y-113784819D01*
X145292857Y-113784819D02*
X145388095Y-113832438D01*
X145388095Y-113832438D02*
X145435714Y-113880057D01*
X145435714Y-113880057D02*
X145483333Y-113975295D01*
X145483333Y-113975295D02*
X145483333Y-114070533D01*
X145483333Y-114070533D02*
X145435714Y-114213390D01*
X145435714Y-114213390D02*
X144864286Y-114784819D01*
X144864286Y-114784819D02*
X145483333Y-114784819D01*
X126374819Y-47666666D02*
X125898628Y-47999999D01*
X126374819Y-48238094D02*
X125374819Y-48238094D01*
X125374819Y-48238094D02*
X125374819Y-47857142D01*
X125374819Y-47857142D02*
X125422438Y-47761904D01*
X125422438Y-47761904D02*
X125470057Y-47714285D01*
X125470057Y-47714285D02*
X125565295Y-47666666D01*
X125565295Y-47666666D02*
X125708152Y-47666666D01*
X125708152Y-47666666D02*
X125803390Y-47714285D01*
X125803390Y-47714285D02*
X125851009Y-47761904D01*
X125851009Y-47761904D02*
X125898628Y-47857142D01*
X125898628Y-47857142D02*
X125898628Y-48238094D01*
X125470057Y-47285713D02*
X125422438Y-47238094D01*
X125422438Y-47238094D02*
X125374819Y-47142856D01*
X125374819Y-47142856D02*
X125374819Y-46904761D01*
X125374819Y-46904761D02*
X125422438Y-46809523D01*
X125422438Y-46809523D02*
X125470057Y-46761904D01*
X125470057Y-46761904D02*
X125565295Y-46714285D01*
X125565295Y-46714285D02*
X125660533Y-46714285D01*
X125660533Y-46714285D02*
X125803390Y-46761904D01*
X125803390Y-46761904D02*
X126374819Y-47333332D01*
X126374819Y-47333332D02*
X126374819Y-46714285D01*
X127584819Y-47666666D02*
X127108628Y-47999999D01*
X127584819Y-48238094D02*
X126584819Y-48238094D01*
X126584819Y-48238094D02*
X126584819Y-47857142D01*
X126584819Y-47857142D02*
X126632438Y-47761904D01*
X126632438Y-47761904D02*
X126680057Y-47714285D01*
X126680057Y-47714285D02*
X126775295Y-47666666D01*
X126775295Y-47666666D02*
X126918152Y-47666666D01*
X126918152Y-47666666D02*
X127013390Y-47714285D01*
X127013390Y-47714285D02*
X127061009Y-47761904D01*
X127061009Y-47761904D02*
X127108628Y-47857142D01*
X127108628Y-47857142D02*
X127108628Y-48238094D01*
X126584819Y-47333332D02*
X126584819Y-46714285D01*
X126584819Y-46714285D02*
X126965771Y-47047618D01*
X126965771Y-47047618D02*
X126965771Y-46904761D01*
X126965771Y-46904761D02*
X127013390Y-46809523D01*
X127013390Y-46809523D02*
X127061009Y-46761904D01*
X127061009Y-46761904D02*
X127156247Y-46714285D01*
X127156247Y-46714285D02*
X127394342Y-46714285D01*
X127394342Y-46714285D02*
X127489580Y-46761904D01*
X127489580Y-46761904D02*
X127537200Y-46809523D01*
X127537200Y-46809523D02*
X127584819Y-46904761D01*
X127584819Y-46904761D02*
X127584819Y-47190475D01*
X127584819Y-47190475D02*
X127537200Y-47285713D01*
X127537200Y-47285713D02*
X127489580Y-47333332D01*
X115634819Y-47666666D02*
X115158628Y-47999999D01*
X115634819Y-48238094D02*
X114634819Y-48238094D01*
X114634819Y-48238094D02*
X114634819Y-47857142D01*
X114634819Y-47857142D02*
X114682438Y-47761904D01*
X114682438Y-47761904D02*
X114730057Y-47714285D01*
X114730057Y-47714285D02*
X114825295Y-47666666D01*
X114825295Y-47666666D02*
X114968152Y-47666666D01*
X114968152Y-47666666D02*
X115063390Y-47714285D01*
X115063390Y-47714285D02*
X115111009Y-47761904D01*
X115111009Y-47761904D02*
X115158628Y-47857142D01*
X115158628Y-47857142D02*
X115158628Y-48238094D01*
X115634819Y-46714285D02*
X115634819Y-47285713D01*
X115634819Y-46999999D02*
X114634819Y-46999999D01*
X114634819Y-46999999D02*
X114777676Y-47095237D01*
X114777676Y-47095237D02*
X114872914Y-47190475D01*
X114872914Y-47190475D02*
X114920533Y-47285713D01*
X119524819Y-132046666D02*
X119048628Y-132379999D01*
X119524819Y-132618094D02*
X118524819Y-132618094D01*
X118524819Y-132618094D02*
X118524819Y-132237142D01*
X118524819Y-132237142D02*
X118572438Y-132141904D01*
X118572438Y-132141904D02*
X118620057Y-132094285D01*
X118620057Y-132094285D02*
X118715295Y-132046666D01*
X118715295Y-132046666D02*
X118858152Y-132046666D01*
X118858152Y-132046666D02*
X118953390Y-132094285D01*
X118953390Y-132094285D02*
X119001009Y-132141904D01*
X119001009Y-132141904D02*
X119048628Y-132237142D01*
X119048628Y-132237142D02*
X119048628Y-132618094D01*
X118953390Y-131475237D02*
X118905771Y-131570475D01*
X118905771Y-131570475D02*
X118858152Y-131618094D01*
X118858152Y-131618094D02*
X118762914Y-131665713D01*
X118762914Y-131665713D02*
X118715295Y-131665713D01*
X118715295Y-131665713D02*
X118620057Y-131618094D01*
X118620057Y-131618094D02*
X118572438Y-131570475D01*
X118572438Y-131570475D02*
X118524819Y-131475237D01*
X118524819Y-131475237D02*
X118524819Y-131284761D01*
X118524819Y-131284761D02*
X118572438Y-131189523D01*
X118572438Y-131189523D02*
X118620057Y-131141904D01*
X118620057Y-131141904D02*
X118715295Y-131094285D01*
X118715295Y-131094285D02*
X118762914Y-131094285D01*
X118762914Y-131094285D02*
X118858152Y-131141904D01*
X118858152Y-131141904D02*
X118905771Y-131189523D01*
X118905771Y-131189523D02*
X118953390Y-131284761D01*
X118953390Y-131284761D02*
X118953390Y-131475237D01*
X118953390Y-131475237D02*
X119001009Y-131570475D01*
X119001009Y-131570475D02*
X119048628Y-131618094D01*
X119048628Y-131618094D02*
X119143866Y-131665713D01*
X119143866Y-131665713D02*
X119334342Y-131665713D01*
X119334342Y-131665713D02*
X119429580Y-131618094D01*
X119429580Y-131618094D02*
X119477200Y-131570475D01*
X119477200Y-131570475D02*
X119524819Y-131475237D01*
X119524819Y-131475237D02*
X119524819Y-131284761D01*
X119524819Y-131284761D02*
X119477200Y-131189523D01*
X119477200Y-131189523D02*
X119429580Y-131141904D01*
X119429580Y-131141904D02*
X119334342Y-131094285D01*
X119334342Y-131094285D02*
X119143866Y-131094285D01*
X119143866Y-131094285D02*
X119048628Y-131141904D01*
X119048628Y-131141904D02*
X119001009Y-131189523D01*
X119001009Y-131189523D02*
X118953390Y-131284761D01*
X114884819Y-120746666D02*
X114408628Y-121079999D01*
X114884819Y-121318094D02*
X113884819Y-121318094D01*
X113884819Y-121318094D02*
X113884819Y-120937142D01*
X113884819Y-120937142D02*
X113932438Y-120841904D01*
X113932438Y-120841904D02*
X113980057Y-120794285D01*
X113980057Y-120794285D02*
X114075295Y-120746666D01*
X114075295Y-120746666D02*
X114218152Y-120746666D01*
X114218152Y-120746666D02*
X114313390Y-120794285D01*
X114313390Y-120794285D02*
X114361009Y-120841904D01*
X114361009Y-120841904D02*
X114408628Y-120937142D01*
X114408628Y-120937142D02*
X114408628Y-121318094D01*
X114884819Y-120270475D02*
X114884819Y-120079999D01*
X114884819Y-120079999D02*
X114837200Y-119984761D01*
X114837200Y-119984761D02*
X114789580Y-119937142D01*
X114789580Y-119937142D02*
X114646723Y-119841904D01*
X114646723Y-119841904D02*
X114456247Y-119794285D01*
X114456247Y-119794285D02*
X114075295Y-119794285D01*
X114075295Y-119794285D02*
X113980057Y-119841904D01*
X113980057Y-119841904D02*
X113932438Y-119889523D01*
X113932438Y-119889523D02*
X113884819Y-119984761D01*
X113884819Y-119984761D02*
X113884819Y-120175237D01*
X113884819Y-120175237D02*
X113932438Y-120270475D01*
X113932438Y-120270475D02*
X113980057Y-120318094D01*
X113980057Y-120318094D02*
X114075295Y-120365713D01*
X114075295Y-120365713D02*
X114313390Y-120365713D01*
X114313390Y-120365713D02*
X114408628Y-120318094D01*
X114408628Y-120318094D02*
X114456247Y-120270475D01*
X114456247Y-120270475D02*
X114503866Y-120175237D01*
X114503866Y-120175237D02*
X114503866Y-119984761D01*
X114503866Y-119984761D02*
X114456247Y-119889523D01*
X114456247Y-119889523D02*
X114408628Y-119841904D01*
X114408628Y-119841904D02*
X114313390Y-119794285D01*
X98658595Y-46732319D02*
X98658595Y-47541842D01*
X98658595Y-47541842D02*
X98706214Y-47637080D01*
X98706214Y-47637080D02*
X98753833Y-47684700D01*
X98753833Y-47684700D02*
X98849071Y-47732319D01*
X98849071Y-47732319D02*
X99039547Y-47732319D01*
X99039547Y-47732319D02*
X99134785Y-47684700D01*
X99134785Y-47684700D02*
X99182404Y-47637080D01*
X99182404Y-47637080D02*
X99230023Y-47541842D01*
X99230023Y-47541842D02*
X99230023Y-46732319D01*
X100230023Y-47732319D02*
X99658595Y-47732319D01*
X99944309Y-47732319D02*
X99944309Y-46732319D01*
X99944309Y-46732319D02*
X99849071Y-46875176D01*
X99849071Y-46875176D02*
X99753833Y-46970414D01*
X99753833Y-46970414D02*
X99658595Y-47018033D01*
X83998095Y-155304668D02*
X83998095Y-156114191D01*
X83998095Y-156114191D02*
X84045714Y-156209429D01*
X84045714Y-156209429D02*
X84093333Y-156257049D01*
X84093333Y-156257049D02*
X84188571Y-156304668D01*
X84188571Y-156304668D02*
X84379047Y-156304668D01*
X84379047Y-156304668D02*
X84474285Y-156257049D01*
X84474285Y-156257049D02*
X84521904Y-156209429D01*
X84521904Y-156209429D02*
X84569523Y-156114191D01*
X84569523Y-156114191D02*
X84569523Y-155304668D01*
X84950476Y-155304668D02*
X85569523Y-155304668D01*
X85569523Y-155304668D02*
X85236190Y-155685620D01*
X85236190Y-155685620D02*
X85379047Y-155685620D01*
X85379047Y-155685620D02*
X85474285Y-155733239D01*
X85474285Y-155733239D02*
X85521904Y-155780858D01*
X85521904Y-155780858D02*
X85569523Y-155876096D01*
X85569523Y-155876096D02*
X85569523Y-156114191D01*
X85569523Y-156114191D02*
X85521904Y-156209429D01*
X85521904Y-156209429D02*
X85474285Y-156257049D01*
X85474285Y-156257049D02*
X85379047Y-156304668D01*
X85379047Y-156304668D02*
X85093333Y-156304668D01*
X85093333Y-156304668D02*
X84998095Y-156257049D01*
X84998095Y-156257049D02*
X84950476Y-156209429D01*
X87069580Y-144866515D02*
X87117200Y-144914134D01*
X87117200Y-144914134D02*
X87164819Y-145056991D01*
X87164819Y-145056991D02*
X87164819Y-145152229D01*
X87164819Y-145152229D02*
X87117200Y-145295086D01*
X87117200Y-145295086D02*
X87021961Y-145390324D01*
X87021961Y-145390324D02*
X86926723Y-145437943D01*
X86926723Y-145437943D02*
X86736247Y-145485562D01*
X86736247Y-145485562D02*
X86593390Y-145485562D01*
X86593390Y-145485562D02*
X86402914Y-145437943D01*
X86402914Y-145437943D02*
X86307676Y-145390324D01*
X86307676Y-145390324D02*
X86212438Y-145295086D01*
X86212438Y-145295086D02*
X86164819Y-145152229D01*
X86164819Y-145152229D02*
X86164819Y-145056991D01*
X86164819Y-145056991D02*
X86212438Y-144914134D01*
X86212438Y-144914134D02*
X86260057Y-144866515D01*
X86260057Y-144485562D02*
X86212438Y-144437943D01*
X86212438Y-144437943D02*
X86164819Y-144342705D01*
X86164819Y-144342705D02*
X86164819Y-144104610D01*
X86164819Y-144104610D02*
X86212438Y-144009372D01*
X86212438Y-144009372D02*
X86260057Y-143961753D01*
X86260057Y-143961753D02*
X86355295Y-143914134D01*
X86355295Y-143914134D02*
X86450533Y-143914134D01*
X86450533Y-143914134D02*
X86593390Y-143961753D01*
X86593390Y-143961753D02*
X87164819Y-144533181D01*
X87164819Y-144533181D02*
X87164819Y-143914134D01*
X101109580Y-151014015D02*
X101157200Y-151061634D01*
X101157200Y-151061634D02*
X101204819Y-151204491D01*
X101204819Y-151204491D02*
X101204819Y-151299729D01*
X101204819Y-151299729D02*
X101157200Y-151442586D01*
X101157200Y-151442586D02*
X101061961Y-151537824D01*
X101061961Y-151537824D02*
X100966723Y-151585443D01*
X100966723Y-151585443D02*
X100776247Y-151633062D01*
X100776247Y-151633062D02*
X100633390Y-151633062D01*
X100633390Y-151633062D02*
X100442914Y-151585443D01*
X100442914Y-151585443D02*
X100347676Y-151537824D01*
X100347676Y-151537824D02*
X100252438Y-151442586D01*
X100252438Y-151442586D02*
X100204819Y-151299729D01*
X100204819Y-151299729D02*
X100204819Y-151204491D01*
X100204819Y-151204491D02*
X100252438Y-151061634D01*
X100252438Y-151061634D02*
X100300057Y-151014015D01*
X100204819Y-150680681D02*
X100204819Y-150061634D01*
X100204819Y-150061634D02*
X100585771Y-150394967D01*
X100585771Y-150394967D02*
X100585771Y-150252110D01*
X100585771Y-150252110D02*
X100633390Y-150156872D01*
X100633390Y-150156872D02*
X100681009Y-150109253D01*
X100681009Y-150109253D02*
X100776247Y-150061634D01*
X100776247Y-150061634D02*
X101014342Y-150061634D01*
X101014342Y-150061634D02*
X101109580Y-150109253D01*
X101109580Y-150109253D02*
X101157200Y-150156872D01*
X101157200Y-150156872D02*
X101204819Y-150252110D01*
X101204819Y-150252110D02*
X101204819Y-150537824D01*
X101204819Y-150537824D02*
X101157200Y-150633062D01*
X101157200Y-150633062D02*
X101109580Y-150680681D01*
X93319580Y-144816515D02*
X93367200Y-144864134D01*
X93367200Y-144864134D02*
X93414819Y-145006991D01*
X93414819Y-145006991D02*
X93414819Y-145102229D01*
X93414819Y-145102229D02*
X93367200Y-145245086D01*
X93367200Y-145245086D02*
X93271961Y-145340324D01*
X93271961Y-145340324D02*
X93176723Y-145387943D01*
X93176723Y-145387943D02*
X92986247Y-145435562D01*
X92986247Y-145435562D02*
X92843390Y-145435562D01*
X92843390Y-145435562D02*
X92652914Y-145387943D01*
X92652914Y-145387943D02*
X92557676Y-145340324D01*
X92557676Y-145340324D02*
X92462438Y-145245086D01*
X92462438Y-145245086D02*
X92414819Y-145102229D01*
X92414819Y-145102229D02*
X92414819Y-145006991D01*
X92414819Y-145006991D02*
X92462438Y-144864134D01*
X92462438Y-144864134D02*
X92510057Y-144816515D01*
X93414819Y-143864134D02*
X93414819Y-144435562D01*
X93414819Y-144149848D02*
X92414819Y-144149848D01*
X92414819Y-144149848D02*
X92557676Y-144245086D01*
X92557676Y-144245086D02*
X92652914Y-144340324D01*
X92652914Y-144340324D02*
X92700533Y-144435562D01*
X102185714Y-99036604D02*
X102661904Y-99036604D01*
X102090476Y-99322319D02*
X102423809Y-98322319D01*
X102423809Y-98322319D02*
X102757142Y-99322319D01*
X103614285Y-99322319D02*
X103042857Y-99322319D01*
X103328571Y-99322319D02*
X103328571Y-98322319D01*
X103328571Y-98322319D02*
X103233333Y-98465176D01*
X103233333Y-98465176D02*
X103138095Y-98560414D01*
X103138095Y-98560414D02*
X103042857Y-98608033D01*
X81609580Y-145066666D02*
X81657200Y-145114285D01*
X81657200Y-145114285D02*
X81704819Y-145257142D01*
X81704819Y-145257142D02*
X81704819Y-145352380D01*
X81704819Y-145352380D02*
X81657200Y-145495237D01*
X81657200Y-145495237D02*
X81561961Y-145590475D01*
X81561961Y-145590475D02*
X81466723Y-145638094D01*
X81466723Y-145638094D02*
X81276247Y-145685713D01*
X81276247Y-145685713D02*
X81133390Y-145685713D01*
X81133390Y-145685713D02*
X80942914Y-145638094D01*
X80942914Y-145638094D02*
X80847676Y-145590475D01*
X80847676Y-145590475D02*
X80752438Y-145495237D01*
X80752438Y-145495237D02*
X80704819Y-145352380D01*
X80704819Y-145352380D02*
X80704819Y-145257142D01*
X80704819Y-145257142D02*
X80752438Y-145114285D01*
X80752438Y-145114285D02*
X80800057Y-145066666D01*
X81038152Y-144209523D02*
X81704819Y-144209523D01*
X80657200Y-144447618D02*
X81371485Y-144685713D01*
X81371485Y-144685713D02*
X81371485Y-144066666D01*
X81569580Y-150716515D02*
X81617200Y-150764134D01*
X81617200Y-150764134D02*
X81664819Y-150906991D01*
X81664819Y-150906991D02*
X81664819Y-151002229D01*
X81664819Y-151002229D02*
X81617200Y-151145086D01*
X81617200Y-151145086D02*
X81521961Y-151240324D01*
X81521961Y-151240324D02*
X81426723Y-151287943D01*
X81426723Y-151287943D02*
X81236247Y-151335562D01*
X81236247Y-151335562D02*
X81093390Y-151335562D01*
X81093390Y-151335562D02*
X80902914Y-151287943D01*
X80902914Y-151287943D02*
X80807676Y-151240324D01*
X80807676Y-151240324D02*
X80712438Y-151145086D01*
X80712438Y-151145086D02*
X80664819Y-151002229D01*
X80664819Y-151002229D02*
X80664819Y-150906991D01*
X80664819Y-150906991D02*
X80712438Y-150764134D01*
X80712438Y-150764134D02*
X80760057Y-150716515D01*
X81093390Y-150145086D02*
X81045771Y-150240324D01*
X81045771Y-150240324D02*
X80998152Y-150287943D01*
X80998152Y-150287943D02*
X80902914Y-150335562D01*
X80902914Y-150335562D02*
X80855295Y-150335562D01*
X80855295Y-150335562D02*
X80760057Y-150287943D01*
X80760057Y-150287943D02*
X80712438Y-150240324D01*
X80712438Y-150240324D02*
X80664819Y-150145086D01*
X80664819Y-150145086D02*
X80664819Y-149954610D01*
X80664819Y-149954610D02*
X80712438Y-149859372D01*
X80712438Y-149859372D02*
X80760057Y-149811753D01*
X80760057Y-149811753D02*
X80855295Y-149764134D01*
X80855295Y-149764134D02*
X80902914Y-149764134D01*
X80902914Y-149764134D02*
X80998152Y-149811753D01*
X80998152Y-149811753D02*
X81045771Y-149859372D01*
X81045771Y-149859372D02*
X81093390Y-149954610D01*
X81093390Y-149954610D02*
X81093390Y-150145086D01*
X81093390Y-150145086D02*
X81141009Y-150240324D01*
X81141009Y-150240324D02*
X81188628Y-150287943D01*
X81188628Y-150287943D02*
X81283866Y-150335562D01*
X81283866Y-150335562D02*
X81474342Y-150335562D01*
X81474342Y-150335562D02*
X81569580Y-150287943D01*
X81569580Y-150287943D02*
X81617200Y-150240324D01*
X81617200Y-150240324D02*
X81664819Y-150145086D01*
X81664819Y-150145086D02*
X81664819Y-149954610D01*
X81664819Y-149954610D02*
X81617200Y-149859372D01*
X81617200Y-149859372D02*
X81569580Y-149811753D01*
X81569580Y-149811753D02*
X81474342Y-149764134D01*
X81474342Y-149764134D02*
X81283866Y-149764134D01*
X81283866Y-149764134D02*
X81188628Y-149811753D01*
X81188628Y-149811753D02*
X81141009Y-149859372D01*
X81141009Y-149859372D02*
X81093390Y-149954610D01*
X124190476Y-147816819D02*
X124190476Y-148531104D01*
X124190476Y-148531104D02*
X124142857Y-148673961D01*
X124142857Y-148673961D02*
X124047619Y-148769200D01*
X124047619Y-148769200D02*
X123904762Y-148816819D01*
X123904762Y-148816819D02*
X123809524Y-148816819D01*
X125190476Y-148816819D02*
X124619048Y-148816819D01*
X124904762Y-148816819D02*
X124904762Y-147816819D01*
X124904762Y-147816819D02*
X124809524Y-147959676D01*
X124809524Y-147959676D02*
X124714286Y-148054914D01*
X124714286Y-148054914D02*
X124619048Y-148102533D01*
X126095238Y-147816819D02*
X125619048Y-147816819D01*
X125619048Y-147816819D02*
X125571429Y-148293009D01*
X125571429Y-148293009D02*
X125619048Y-148245390D01*
X125619048Y-148245390D02*
X125714286Y-148197771D01*
X125714286Y-148197771D02*
X125952381Y-148197771D01*
X125952381Y-148197771D02*
X126047619Y-148245390D01*
X126047619Y-148245390D02*
X126095238Y-148293009D01*
X126095238Y-148293009D02*
X126142857Y-148388247D01*
X126142857Y-148388247D02*
X126142857Y-148626342D01*
X126142857Y-148626342D02*
X126095238Y-148721580D01*
X126095238Y-148721580D02*
X126047619Y-148769200D01*
X126047619Y-148769200D02*
X125952381Y-148816819D01*
X125952381Y-148816819D02*
X125714286Y-148816819D01*
X125714286Y-148816819D02*
X125619048Y-148769200D01*
X125619048Y-148769200D02*
X125571429Y-148721580D01*
X138160476Y-124946819D02*
X138160476Y-125661104D01*
X138160476Y-125661104D02*
X138112857Y-125803961D01*
X138112857Y-125803961D02*
X138017619Y-125899200D01*
X138017619Y-125899200D02*
X137874762Y-125946819D01*
X137874762Y-125946819D02*
X137779524Y-125946819D01*
X139160476Y-125946819D02*
X138589048Y-125946819D01*
X138874762Y-125946819D02*
X138874762Y-124946819D01*
X138874762Y-124946819D02*
X138779524Y-125089676D01*
X138779524Y-125089676D02*
X138684286Y-125184914D01*
X138684286Y-125184914D02*
X138589048Y-125232533D01*
X140017619Y-124946819D02*
X139827143Y-124946819D01*
X139827143Y-124946819D02*
X139731905Y-124994438D01*
X139731905Y-124994438D02*
X139684286Y-125042057D01*
X139684286Y-125042057D02*
X139589048Y-125184914D01*
X139589048Y-125184914D02*
X139541429Y-125375390D01*
X139541429Y-125375390D02*
X139541429Y-125756342D01*
X139541429Y-125756342D02*
X139589048Y-125851580D01*
X139589048Y-125851580D02*
X139636667Y-125899200D01*
X139636667Y-125899200D02*
X139731905Y-125946819D01*
X139731905Y-125946819D02*
X139922381Y-125946819D01*
X139922381Y-125946819D02*
X140017619Y-125899200D01*
X140017619Y-125899200D02*
X140065238Y-125851580D01*
X140065238Y-125851580D02*
X140112857Y-125756342D01*
X140112857Y-125756342D02*
X140112857Y-125518247D01*
X140112857Y-125518247D02*
X140065238Y-125423009D01*
X140065238Y-125423009D02*
X140017619Y-125375390D01*
X140017619Y-125375390D02*
X139922381Y-125327771D01*
X139922381Y-125327771D02*
X139731905Y-125327771D01*
X139731905Y-125327771D02*
X139636667Y-125375390D01*
X139636667Y-125375390D02*
X139589048Y-125423009D01*
X139589048Y-125423009D02*
X139541429Y-125518247D01*
X103438095Y-148254819D02*
X103438095Y-147254819D01*
X103438095Y-147731009D02*
X104009523Y-147731009D01*
X104009523Y-148254819D02*
X104009523Y-147254819D01*
X104438095Y-147350057D02*
X104485714Y-147302438D01*
X104485714Y-147302438D02*
X104580952Y-147254819D01*
X104580952Y-147254819D02*
X104819047Y-147254819D01*
X104819047Y-147254819D02*
X104914285Y-147302438D01*
X104914285Y-147302438D02*
X104961904Y-147350057D01*
X104961904Y-147350057D02*
X105009523Y-147445295D01*
X105009523Y-147445295D02*
X105009523Y-147540533D01*
X105009523Y-147540533D02*
X104961904Y-147683390D01*
X104961904Y-147683390D02*
X104390476Y-148254819D01*
X104390476Y-148254819D02*
X105009523Y-148254819D01*
X79738095Y-120654819D02*
X79738095Y-119654819D01*
X79738095Y-120131009D02*
X80309523Y-120131009D01*
X80309523Y-120654819D02*
X80309523Y-119654819D01*
X81309523Y-120654819D02*
X80738095Y-120654819D01*
X81023809Y-120654819D02*
X81023809Y-119654819D01*
X81023809Y-119654819D02*
X80928571Y-119797676D01*
X80928571Y-119797676D02*
X80833333Y-119892914D01*
X80833333Y-119892914D02*
X80738095Y-119940533D01*
X79348095Y-36807319D02*
X79348095Y-35807319D01*
X79348095Y-36283509D02*
X79919523Y-36283509D01*
X79919523Y-36807319D02*
X79919523Y-35807319D01*
X80300476Y-35807319D02*
X80919523Y-35807319D01*
X80919523Y-35807319D02*
X80586190Y-36188271D01*
X80586190Y-36188271D02*
X80729047Y-36188271D01*
X80729047Y-36188271D02*
X80824285Y-36235890D01*
X80824285Y-36235890D02*
X80871904Y-36283509D01*
X80871904Y-36283509D02*
X80919523Y-36378747D01*
X80919523Y-36378747D02*
X80919523Y-36616842D01*
X80919523Y-36616842D02*
X80871904Y-36712080D01*
X80871904Y-36712080D02*
X80824285Y-36759700D01*
X80824285Y-36759700D02*
X80729047Y-36807319D01*
X80729047Y-36807319D02*
X80443333Y-36807319D01*
X80443333Y-36807319D02*
X80348095Y-36759700D01*
X80348095Y-36759700D02*
X80300476Y-36712080D01*
X109738095Y-37304819D02*
X109738095Y-36304819D01*
X109738095Y-36781009D02*
X110309523Y-36781009D01*
X110309523Y-37304819D02*
X110309523Y-36304819D01*
X111214285Y-36638152D02*
X111214285Y-37304819D01*
X110976190Y-36257200D02*
X110738095Y-36971485D01*
X110738095Y-36971485D02*
X111357142Y-36971485D01*
X110064819Y-142868094D02*
X109064819Y-142868094D01*
X109064819Y-142868094D02*
X109064819Y-142629999D01*
X109064819Y-142629999D02*
X109112438Y-142487142D01*
X109112438Y-142487142D02*
X109207676Y-142391904D01*
X109207676Y-142391904D02*
X109302914Y-142344285D01*
X109302914Y-142344285D02*
X109493390Y-142296666D01*
X109493390Y-142296666D02*
X109636247Y-142296666D01*
X109636247Y-142296666D02*
X109826723Y-142344285D01*
X109826723Y-142344285D02*
X109921961Y-142391904D01*
X109921961Y-142391904D02*
X110017200Y-142487142D01*
X110017200Y-142487142D02*
X110064819Y-142629999D01*
X110064819Y-142629999D02*
X110064819Y-142868094D01*
X109160057Y-141915713D02*
X109112438Y-141868094D01*
X109112438Y-141868094D02*
X109064819Y-141772856D01*
X109064819Y-141772856D02*
X109064819Y-141534761D01*
X109064819Y-141534761D02*
X109112438Y-141439523D01*
X109112438Y-141439523D02*
X109160057Y-141391904D01*
X109160057Y-141391904D02*
X109255295Y-141344285D01*
X109255295Y-141344285D02*
X109350533Y-141344285D01*
X109350533Y-141344285D02*
X109493390Y-141391904D01*
X109493390Y-141391904D02*
X110064819Y-141963332D01*
X110064819Y-141963332D02*
X110064819Y-141344285D01*
X113224819Y-149442857D02*
X112748628Y-149776190D01*
X113224819Y-150014285D02*
X112224819Y-150014285D01*
X112224819Y-150014285D02*
X112224819Y-149633333D01*
X112224819Y-149633333D02*
X112272438Y-149538095D01*
X112272438Y-149538095D02*
X112320057Y-149490476D01*
X112320057Y-149490476D02*
X112415295Y-149442857D01*
X112415295Y-149442857D02*
X112558152Y-149442857D01*
X112558152Y-149442857D02*
X112653390Y-149490476D01*
X112653390Y-149490476D02*
X112701009Y-149538095D01*
X112701009Y-149538095D02*
X112748628Y-149633333D01*
X112748628Y-149633333D02*
X112748628Y-150014285D01*
X112320057Y-149061904D02*
X112272438Y-149014285D01*
X112272438Y-149014285D02*
X112224819Y-148919047D01*
X112224819Y-148919047D02*
X112224819Y-148680952D01*
X112224819Y-148680952D02*
X112272438Y-148585714D01*
X112272438Y-148585714D02*
X112320057Y-148538095D01*
X112320057Y-148538095D02*
X112415295Y-148490476D01*
X112415295Y-148490476D02*
X112510533Y-148490476D01*
X112510533Y-148490476D02*
X112653390Y-148538095D01*
X112653390Y-148538095D02*
X113224819Y-149109523D01*
X113224819Y-149109523D02*
X113224819Y-148490476D01*
X113224819Y-147538095D02*
X113224819Y-148109523D01*
X113224819Y-147823809D02*
X112224819Y-147823809D01*
X112224819Y-147823809D02*
X112367676Y-147919047D01*
X112367676Y-147919047D02*
X112462914Y-148014285D01*
X112462914Y-148014285D02*
X112510533Y-148109523D01*
D12*
%TO.C,R17*%
X97010000Y-83572500D02*
X97010000Y-82802500D01*
X95640000Y-82802500D02*
X98380000Y-82802500D01*
X98380000Y-82802500D02*
X98380000Y-76262500D01*
X95640000Y-76262500D02*
X95640000Y-82802500D01*
X98380000Y-76262500D02*
X95640000Y-76262500D01*
X97010000Y-75492500D02*
X97010000Y-76262500D01*
%TO.C,R18*%
X103160000Y-83592500D02*
X103160000Y-82822500D01*
X101790000Y-82822500D02*
X104530000Y-82822500D01*
X104530000Y-82822500D02*
X104530000Y-76282500D01*
X101790000Y-76282500D02*
X101790000Y-82822500D01*
X104530000Y-76282500D02*
X101790000Y-76282500D01*
X103160000Y-75512500D02*
X103160000Y-76282500D01*
%TO.C,R15*%
X85040500Y-63057500D02*
X85810500Y-63057500D01*
X85810500Y-61687500D02*
X85810500Y-64427500D01*
X85810500Y-64427500D02*
X92350500Y-64427500D01*
X92350500Y-61687500D02*
X85810500Y-61687500D01*
X92350500Y-64427500D02*
X92350500Y-61687500D01*
X93120500Y-63057500D02*
X92350500Y-63057500D01*
%TO.C,R7*%
X84900500Y-74957500D02*
X85670500Y-74957500D01*
X85670500Y-73587500D02*
X85670500Y-76327500D01*
X85670500Y-76327500D02*
X92210500Y-76327500D01*
X92210500Y-73587500D02*
X85670500Y-73587500D01*
X92210500Y-76327500D02*
X92210500Y-73587500D01*
X92980500Y-74957500D02*
X92210500Y-74957500D01*
%TO.C,R13*%
X85050500Y-56997500D02*
X85820500Y-56997500D01*
X85820500Y-55627500D02*
X85820500Y-58367500D01*
X85820500Y-58367500D02*
X92360500Y-58367500D01*
X92360500Y-55627500D02*
X85820500Y-55627500D01*
X92360500Y-58367500D02*
X92360500Y-55627500D01*
X93130500Y-56997500D02*
X92360500Y-56997500D01*
%TO.C,R14*%
X84920500Y-68957500D02*
X85690500Y-68957500D01*
X85690500Y-67587500D02*
X85690500Y-70327500D01*
X85690500Y-70327500D02*
X92230500Y-70327500D01*
X92230500Y-67587500D02*
X85690500Y-67587500D01*
X92230500Y-70327500D02*
X92230500Y-67587500D01*
X93000500Y-68957500D02*
X92230500Y-68957500D01*
%TO.C,R16*%
X85050500Y-51007500D02*
X85820500Y-51007500D01*
X85820500Y-49637500D02*
X85820500Y-52377500D01*
X85820500Y-52377500D02*
X92360500Y-52377500D01*
X92360500Y-49637500D02*
X85820500Y-49637500D01*
X92360500Y-52377500D02*
X92360500Y-49637500D01*
X93130500Y-51007500D02*
X92360500Y-51007500D01*
%TO.C,LED1*%
X125630000Y-40860000D02*
X117900000Y-40860000D01*
X117900000Y-38100000D02*
X117900000Y-40860000D01*
X125630000Y-38100000D02*
X125630000Y-40860000D01*
X125630000Y-38100000D02*
X117900000Y-38100000D01*
X126900000Y-38100000D02*
X128280000Y-38100000D01*
X128280000Y-38100000D02*
X128280000Y-39480000D01*
%TO.C,J7*%
X87280000Y-120032500D02*
X87280000Y-99602500D01*
X90040000Y-99602500D02*
X87280000Y-99602500D01*
X90040000Y-120032500D02*
X87280000Y-120032500D01*
X90040000Y-120032500D02*
X90040000Y-99602500D01*
X90040000Y-121302500D02*
X90040000Y-122682500D01*
X90040000Y-122682500D02*
X88660000Y-122682500D01*
%TO.C,R20*%
X118500000Y-83310000D02*
X118500000Y-82540000D01*
X117130000Y-82540000D02*
X119870000Y-82540000D01*
X119870000Y-82540000D02*
X119870000Y-76000000D01*
X117130000Y-76000000D02*
X117130000Y-82540000D01*
X119870000Y-76000000D02*
X117130000Y-76000000D01*
X118500000Y-75230000D02*
X118500000Y-76000000D01*
%TO.C,R19*%
X114450000Y-83310000D02*
X114450000Y-82540000D01*
X113080000Y-82540000D02*
X115820000Y-82540000D01*
X115820000Y-82540000D02*
X115820000Y-76000000D01*
X113080000Y-76000000D02*
X113080000Y-82540000D01*
X115820000Y-76000000D02*
X113080000Y-76000000D01*
X114450000Y-75230000D02*
X114450000Y-76000000D01*
%TO.C,C7*%
X97680500Y-45207500D02*
G75*
G02*
X93440500Y-45207500I-2120000J0D01*
G01*
X93440500Y-45207500D02*
G75*
G02*
X97680500Y-45207500I2120000J0D01*
G01*
X95930500Y-47287500D02*
X95190500Y-47287500D01*
X96097500Y-47247500D02*
X95023500Y-47247500D01*
X96223500Y-47207500D02*
X94897500Y-47207500D01*
X96328500Y-47167500D02*
X94792500Y-47167500D01*
X96419500Y-47127500D02*
X94701500Y-47127500D01*
X96500500Y-47087500D02*
X94620500Y-47087500D01*
X96573500Y-47047500D02*
X94547500Y-47047500D01*
X96640500Y-47007500D02*
X94480500Y-47007500D01*
X96702500Y-46967500D02*
X94418500Y-46967500D01*
X96759500Y-46927500D02*
X94361500Y-46927500D01*
X96813500Y-46887500D02*
X94307500Y-46887500D01*
X96863500Y-46847500D02*
X94257500Y-46847500D01*
X96911500Y-46807500D02*
X94209500Y-46807500D01*
X94720500Y-46767500D02*
X94164500Y-46767500D01*
X96956500Y-46767500D02*
X96400500Y-46767500D01*
X94720500Y-46727500D02*
X94122500Y-46727500D01*
X96998500Y-46727500D02*
X96400500Y-46727500D01*
X94720500Y-46687500D02*
X94082500Y-46687500D01*
X97038500Y-46687500D02*
X96400500Y-46687500D01*
X94720500Y-46647500D02*
X94044500Y-46647500D01*
X97076500Y-46647500D02*
X96400500Y-46647500D01*
X94720500Y-46607500D02*
X94008500Y-46607500D01*
X97112500Y-46607500D02*
X96400500Y-46607500D01*
X94720500Y-46567500D02*
X93974500Y-46567500D01*
X97146500Y-46567500D02*
X96400500Y-46567500D01*
X94720500Y-46527500D02*
X93941500Y-46527500D01*
X97179500Y-46527500D02*
X96400500Y-46527500D01*
X94720500Y-46487500D02*
X93910500Y-46487500D01*
X97210500Y-46487500D02*
X96400500Y-46487500D01*
X94720500Y-46447500D02*
X93880500Y-46447500D01*
X97240500Y-46447500D02*
X96400500Y-46447500D01*
X94720500Y-46407500D02*
X93852500Y-46407500D01*
X97268500Y-46407500D02*
X96400500Y-46407500D01*
X94720500Y-46367500D02*
X93826500Y-46367500D01*
X97294500Y-46367500D02*
X96400500Y-46367500D01*
X94720500Y-46327500D02*
X93800500Y-46327500D01*
X97320500Y-46327500D02*
X96400500Y-46327500D01*
X94720500Y-46287500D02*
X93776500Y-46287500D01*
X97344500Y-46287500D02*
X96400500Y-46287500D01*
X94720500Y-46247500D02*
X93753500Y-46247500D01*
X97367500Y-46247500D02*
X96400500Y-46247500D01*
X94720500Y-46207500D02*
X93731500Y-46207500D01*
X97389500Y-46207500D02*
X96400500Y-46207500D01*
X94720500Y-46167500D02*
X93710500Y-46167500D01*
X97410500Y-46167500D02*
X96400500Y-46167500D01*
X94720500Y-46127500D02*
X93690500Y-46127500D01*
X97430500Y-46127500D02*
X96400500Y-46127500D01*
X94720500Y-46087500D02*
X93671500Y-46087500D01*
X97449500Y-46087500D02*
X96400500Y-46087500D01*
X94720500Y-46047500D02*
X93654500Y-46047500D01*
X97466500Y-46047500D02*
X96400500Y-46047500D01*
X94720500Y-46007500D02*
X93637500Y-46007500D01*
X97483500Y-46007500D02*
X96400500Y-46007500D01*
X94720500Y-45967500D02*
X93621500Y-45967500D01*
X97499500Y-45967500D02*
X96400500Y-45967500D01*
X94720500Y-45927500D02*
X93606500Y-45927500D01*
X97514500Y-45927500D02*
X96400500Y-45927500D01*
X94720500Y-45887500D02*
X93592500Y-45887500D01*
X97528500Y-45887500D02*
X96400500Y-45887500D01*
X94720500Y-45847500D02*
X93579500Y-45847500D01*
X97541500Y-45847500D02*
X96400500Y-45847500D01*
X94720500Y-45807500D02*
X93567500Y-45807500D01*
X97553500Y-45807500D02*
X96400500Y-45807500D01*
X94720500Y-45767500D02*
X93555500Y-45767500D01*
X97565500Y-45767500D02*
X96400500Y-45767500D01*
X94720500Y-45727500D02*
X93545500Y-45727500D01*
X97575500Y-45727500D02*
X96400500Y-45727500D01*
X94720500Y-45687500D02*
X93535500Y-45687500D01*
X97585500Y-45687500D02*
X96400500Y-45687500D01*
X94720500Y-45647500D02*
X93526500Y-45647500D01*
X97594500Y-45647500D02*
X96400500Y-45647500D01*
X94720500Y-45607500D02*
X93518500Y-45607500D01*
X97602500Y-45607500D02*
X96400500Y-45607500D01*
X94720500Y-45567500D02*
X93511500Y-45567500D01*
X97609500Y-45567500D02*
X96400500Y-45567500D01*
X94720500Y-45527500D02*
X93504500Y-45527500D01*
X97616500Y-45527500D02*
X96400500Y-45527500D01*
X94720500Y-45487500D02*
X93499500Y-45487500D01*
X97621500Y-45487500D02*
X96400500Y-45487500D01*
X94720500Y-45447500D02*
X93494500Y-45447500D01*
X97626500Y-45447500D02*
X96400500Y-45447500D01*
X94720500Y-45407500D02*
X93489500Y-45407500D01*
X97631500Y-45407500D02*
X96400500Y-45407500D01*
X94720500Y-45367500D02*
X93486500Y-45367500D01*
X97634500Y-45367500D02*
X96400500Y-45367500D01*
X94720500Y-45327500D02*
X93483500Y-45327500D01*
X97637500Y-45327500D02*
X96400500Y-45327500D01*
X94720500Y-45287500D02*
X93482500Y-45287500D01*
X97638500Y-45287500D02*
X96400500Y-45287500D01*
X94720500Y-45247500D02*
X93480500Y-45247500D01*
X97640500Y-45247500D02*
X96400500Y-45247500D01*
X94720500Y-45207500D02*
X93480500Y-45207500D01*
X97640500Y-45207500D02*
X96400500Y-45207500D01*
X96955500Y-43137699D02*
X96555500Y-43137699D01*
X96755500Y-42937699D02*
X96755500Y-43337699D01*
D10*
%TO.C,D1*%
X82500000Y-142000000D02*
X80800000Y-142000000D01*
X80800000Y-141500000D01*
X82500000Y-141500000D01*
X82500000Y-142000000D01*
G36*
X82500000Y-142000000D02*
G01*
X80800000Y-142000000D01*
X80800000Y-141500000D01*
X82500000Y-141500000D01*
X82500000Y-142000000D01*
G37*
X82500000Y-134700000D02*
X80800000Y-134700000D01*
X80800000Y-134200000D01*
X82500000Y-134200000D01*
X82500000Y-134700000D01*
G36*
X82500000Y-134700000D02*
G01*
X80800000Y-134700000D01*
X80800000Y-134200000D01*
X82500000Y-134200000D01*
X82500000Y-134700000D01*
G37*
D12*
X89300000Y-141500000D02*
X89300000Y-134700000D01*
X79300000Y-141500000D02*
X89300000Y-141500000D01*
X89300000Y-134700000D02*
X79300000Y-134700000D01*
X79300000Y-134700000D02*
X79300000Y-141500000D01*
%TO.C,C6*%
X90980500Y-44457500D02*
G75*
G02*
X85740500Y-44457500I-2620000J0D01*
G01*
X85740500Y-44457500D02*
G75*
G02*
X90980500Y-44457500I2620000J0D01*
G01*
X85760500Y-44740500D02*
X85760500Y-44174500D01*
X85800500Y-44974500D02*
X85800500Y-43940500D01*
X85840500Y-45134500D02*
X85840500Y-43780500D01*
X85880500Y-45262500D02*
X85880500Y-43652500D01*
X85920500Y-45371500D02*
X85920500Y-43543500D01*
X85960500Y-45468500D02*
X85960500Y-43446500D01*
X86000500Y-45555500D02*
X86000500Y-43359500D01*
X86040500Y-45634500D02*
X86040500Y-43280500D01*
X86080500Y-45708500D02*
X86080500Y-43206500D01*
X86120500Y-45776500D02*
X86120500Y-43138500D01*
X86160500Y-45840500D02*
X86160500Y-43074500D01*
X86200500Y-45900500D02*
X86200500Y-43014500D01*
X86240500Y-45956500D02*
X86240500Y-42958500D01*
X86280500Y-46010500D02*
X86280500Y-42904500D01*
X86320500Y-46061500D02*
X86320500Y-42853500D01*
X86360500Y-43417500D02*
X86360500Y-42805500D01*
X86360500Y-46109500D02*
X86360500Y-45497500D01*
X86400500Y-43417500D02*
X86400500Y-42758500D01*
X86400500Y-46156500D02*
X86400500Y-45497500D01*
X86440500Y-43417500D02*
X86440500Y-42714500D01*
X86440500Y-46200500D02*
X86440500Y-45497500D01*
X86480500Y-43417500D02*
X86480500Y-42672500D01*
X86480500Y-46242500D02*
X86480500Y-45497500D01*
X86520500Y-43417500D02*
X86520500Y-42632500D01*
X86520500Y-46282500D02*
X86520500Y-45497500D01*
X86560500Y-43417500D02*
X86560500Y-42593500D01*
X86560500Y-46321500D02*
X86560500Y-45497500D01*
X86600500Y-43417500D02*
X86600500Y-42556500D01*
X86600500Y-46358500D02*
X86600500Y-45497500D01*
X86640500Y-43417500D02*
X86640500Y-42521500D01*
X86640500Y-46393500D02*
X86640500Y-45497500D01*
X86680500Y-43417500D02*
X86680500Y-42487500D01*
X86680500Y-46427500D02*
X86680500Y-45497500D01*
X86720500Y-43417500D02*
X86720500Y-42454500D01*
X86720500Y-46460500D02*
X86720500Y-45497500D01*
X86760500Y-43417500D02*
X86760500Y-42422500D01*
X86760500Y-46492500D02*
X86760500Y-45497500D01*
X86800500Y-43417500D02*
X86800500Y-42392500D01*
X86800500Y-46522500D02*
X86800500Y-45497500D01*
X86840500Y-43417500D02*
X86840500Y-42363500D01*
X86840500Y-46551500D02*
X86840500Y-45497500D01*
X86880500Y-43417500D02*
X86880500Y-42335500D01*
X86880500Y-46579500D02*
X86880500Y-45497500D01*
X86920500Y-43417500D02*
X86920500Y-42308500D01*
X86920500Y-46606500D02*
X86920500Y-45497500D01*
X86960500Y-43417500D02*
X86960500Y-42282500D01*
X86960500Y-46632500D02*
X86960500Y-45497500D01*
X87000500Y-43417500D02*
X87000500Y-42258500D01*
X87000500Y-46656500D02*
X87000500Y-45497500D01*
X87040500Y-43417500D02*
X87040500Y-42234500D01*
X87040500Y-46680500D02*
X87040500Y-45497500D01*
X87080500Y-43417500D02*
X87080500Y-42211500D01*
X87080500Y-46703500D02*
X87080500Y-45497500D01*
X87120500Y-43417500D02*
X87120500Y-42189500D01*
X87120500Y-46725500D02*
X87120500Y-45497500D01*
X87160500Y-43417500D02*
X87160500Y-42168500D01*
X87160500Y-46746500D02*
X87160500Y-45497500D01*
X87200500Y-43417500D02*
X87200500Y-42148500D01*
X87200500Y-46766500D02*
X87200500Y-45497500D01*
X87240500Y-43417500D02*
X87240500Y-42128500D01*
X87240500Y-46786500D02*
X87240500Y-45497500D01*
X87280500Y-43417500D02*
X87280500Y-42110500D01*
X87280500Y-46804500D02*
X87280500Y-45497500D01*
X87320500Y-43417500D02*
X87320500Y-42092500D01*
X87320500Y-46822500D02*
X87320500Y-45497500D01*
X87360500Y-43417500D02*
X87360500Y-42075500D01*
X87360500Y-46839500D02*
X87360500Y-45497500D01*
X87400500Y-43417500D02*
X87400500Y-42059500D01*
X87400500Y-46855500D02*
X87400500Y-45497500D01*
X87440500Y-43417500D02*
X87440500Y-42044500D01*
X87440500Y-46870500D02*
X87440500Y-45497500D01*
X87480500Y-43417500D02*
X87480500Y-42029500D01*
X87480500Y-46885500D02*
X87480500Y-45497500D01*
X87520500Y-43417500D02*
X87520500Y-42015500D01*
X87520500Y-46899500D02*
X87520500Y-45497500D01*
X87560500Y-43417500D02*
X87560500Y-42002500D01*
X87560500Y-46912500D02*
X87560500Y-45497500D01*
X87600500Y-43417500D02*
X87600500Y-41990500D01*
X87600500Y-46924500D02*
X87600500Y-45497500D01*
X87640500Y-43417500D02*
X87640500Y-41978500D01*
X87640500Y-46936500D02*
X87640500Y-45497500D01*
X87680500Y-43417500D02*
X87680500Y-41967500D01*
X87680500Y-46947500D02*
X87680500Y-45497500D01*
X87720500Y-43417500D02*
X87720500Y-41956500D01*
X87720500Y-46958500D02*
X87720500Y-45497500D01*
X87760500Y-43417500D02*
X87760500Y-41947500D01*
X87760500Y-46967500D02*
X87760500Y-45497500D01*
X87800500Y-43417500D02*
X87800500Y-41938500D01*
X87800500Y-46976500D02*
X87800500Y-45497500D01*
X87840500Y-43417500D02*
X87840500Y-41929500D01*
X87840500Y-46985500D02*
X87840500Y-45497500D01*
X87880500Y-43417500D02*
X87880500Y-41921500D01*
X87880500Y-46993500D02*
X87880500Y-45497500D01*
X87920500Y-43417500D02*
X87920500Y-41914500D01*
X87920500Y-47000500D02*
X87920500Y-45497500D01*
X87960500Y-43417500D02*
X87960500Y-41908500D01*
X87960500Y-47006500D02*
X87960500Y-45497500D01*
X88000500Y-43417500D02*
X88000500Y-41902500D01*
X88000500Y-47012500D02*
X88000500Y-45497500D01*
X88040500Y-43417500D02*
X88040500Y-41897500D01*
X88040500Y-47017500D02*
X88040500Y-45497500D01*
X88080500Y-43417500D02*
X88080500Y-41892500D01*
X88080500Y-47022500D02*
X88080500Y-45497500D01*
X88120500Y-43417500D02*
X88120500Y-41888500D01*
X88120500Y-47026500D02*
X88120500Y-45497500D01*
X88160500Y-43417500D02*
X88160500Y-41885500D01*
X88160500Y-47029500D02*
X88160500Y-45497500D01*
X88200500Y-43417500D02*
X88200500Y-41882500D01*
X88200500Y-47032500D02*
X88200500Y-45497500D01*
X88240500Y-43417500D02*
X88240500Y-41880500D01*
X88240500Y-47034500D02*
X88240500Y-45497500D01*
X88280500Y-43417500D02*
X88280500Y-41878500D01*
X88280500Y-47036500D02*
X88280500Y-45497500D01*
X88320500Y-43417500D02*
X88320500Y-41877500D01*
X88320500Y-47037500D02*
X88320500Y-45497500D01*
X88360500Y-43417500D02*
X88360500Y-41877500D01*
X88360500Y-47037500D02*
X88360500Y-45497500D01*
X90915275Y-46182500D02*
X90915275Y-45682500D01*
X91165275Y-45932500D02*
X90665275Y-45932500D01*
%TO.C,J4*%
X137170000Y-128690000D02*
X134770000Y-128690000D01*
X137170000Y-126290000D02*
X137170000Y-128690000D01*
X134770000Y-128690000D02*
X134770000Y-126290000D01*
X134770000Y-126290000D02*
X137170000Y-126290000D01*
%TO.C,J2*%
X115620000Y-89510000D02*
X115620000Y-99730000D01*
X115620000Y-89510000D02*
X118280000Y-89510000D01*
X115620000Y-99730000D02*
X118280000Y-99730000D01*
X116950000Y-86910000D02*
X118280000Y-86910000D01*
X118280000Y-86910000D02*
X118280000Y-88240000D01*
X118280000Y-89510000D02*
X118280000Y-99730000D01*
%TO.C,J3*%
X105140000Y-70582500D02*
X105140000Y-69202500D01*
X106520000Y-70582500D02*
X105140000Y-70582500D01*
X107790000Y-70582500D02*
X130760000Y-70582500D01*
X107790000Y-70582500D02*
X107790000Y-67822500D01*
X130760000Y-70582500D02*
X130760000Y-67822500D01*
X107790000Y-67822500D02*
X130760000Y-67822500D01*
%TO.C,J11*%
X123860000Y-126302500D02*
X126260000Y-126302500D01*
X123860000Y-128702500D02*
X123860000Y-126302500D01*
X126260000Y-126302500D02*
X126260000Y-128702500D01*
X126260000Y-128702500D02*
X123860000Y-128702500D01*
%TO.C,pot/switch1*%
X142380000Y-108130000D02*
X142380000Y-113320000D01*
X139620000Y-113320000D02*
X142380000Y-113320000D01*
X139620000Y-108130000D02*
X142380000Y-108130000D01*
X139620000Y-108130000D02*
X139620000Y-113320000D01*
X139620000Y-106860000D02*
X139620000Y-105480000D01*
X139620000Y-105480000D02*
X141000000Y-105480000D01*
%TO.C,J12*%
X129260000Y-128702500D02*
X126860000Y-128702500D01*
X129260000Y-126302500D02*
X129260000Y-128702500D01*
X126860000Y-128702500D02*
X126860000Y-126302500D01*
X126860000Y-126302500D02*
X129260000Y-126302500D01*
%TO.C,J14*%
X140150000Y-151540000D02*
X137750000Y-151540000D01*
X140150000Y-149140000D02*
X140150000Y-151540000D01*
X137750000Y-151540000D02*
X137750000Y-149140000D01*
X137750000Y-149140000D02*
X140150000Y-149140000D01*
%TO.C,pot/switch2*%
X142530000Y-117980000D02*
X142530000Y-123170000D01*
X139770000Y-123170000D02*
X142530000Y-123170000D01*
X139770000Y-117980000D02*
X142530000Y-117980000D01*
X139770000Y-117980000D02*
X139770000Y-123170000D01*
X139770000Y-116710000D02*
X139770000Y-115330000D01*
X139770000Y-115330000D02*
X141150000Y-115330000D01*
%TO.C,R2*%
X123550000Y-51540000D02*
X123550000Y-50770000D01*
X122180000Y-50770000D02*
X124920000Y-50770000D01*
X124920000Y-50770000D02*
X124920000Y-44230000D01*
X122180000Y-44230000D02*
X122180000Y-50770000D01*
X124920000Y-44230000D02*
X122180000Y-44230000D01*
X123550000Y-43460000D02*
X123550000Y-44230000D01*
%TO.C,R3*%
X129500000Y-51540000D02*
X129500000Y-50770000D01*
X128130000Y-50770000D02*
X130870000Y-50770000D01*
X130870000Y-50770000D02*
X130870000Y-44230000D01*
X128130000Y-44230000D02*
X128130000Y-50770000D01*
X130870000Y-44230000D02*
X128130000Y-44230000D01*
X129500000Y-43460000D02*
X129500000Y-44230000D01*
%TO.C,R1*%
X117550000Y-51540000D02*
X117550000Y-50770000D01*
X116180000Y-50770000D02*
X118920000Y-50770000D01*
X118920000Y-50770000D02*
X118920000Y-44230000D01*
X116180000Y-44230000D02*
X116180000Y-50770000D01*
X118920000Y-44230000D02*
X116180000Y-44230000D01*
X117550000Y-43460000D02*
X117550000Y-44230000D01*
%TO.C,R8*%
X116700000Y-135920000D02*
X116700000Y-135150000D01*
X115330000Y-135150000D02*
X118070000Y-135150000D01*
X118070000Y-135150000D02*
X118070000Y-128610000D01*
X115330000Y-128610000D02*
X115330000Y-135150000D01*
X118070000Y-128610000D02*
X115330000Y-128610000D01*
X116700000Y-127840000D02*
X116700000Y-128610000D01*
%TO.C,R9*%
X116800000Y-116540000D02*
X116800000Y-117310000D01*
X118170000Y-117310000D02*
X115430000Y-117310000D01*
X115430000Y-117310000D02*
X115430000Y-123850000D01*
X118170000Y-123850000D02*
X118170000Y-117310000D01*
X115430000Y-123850000D02*
X118170000Y-123850000D01*
X116800000Y-124620000D02*
X116800000Y-123850000D01*
%TO.C,U1*%
X97620500Y-50277500D02*
X97284500Y-50517500D01*
X97284500Y-50037500D01*
X97620500Y-50277500D01*
G36*
X97620500Y-50277500D02*
G01*
X97284500Y-50517500D01*
X97284500Y-50037500D01*
X97620500Y-50277500D01*
G37*
X127020500Y-63627500D02*
X97820500Y-63627500D01*
X127020500Y-48177500D02*
X127020500Y-63627500D01*
X103484500Y-59421500D02*
X98150500Y-59421500D01*
X103484500Y-48753500D02*
X103484500Y-59421500D01*
X98150500Y-59421500D02*
X98150500Y-59421500D01*
X98150500Y-59421500D02*
X98150500Y-48753500D01*
X98150500Y-48753500D02*
X103484500Y-48753500D01*
X98150500Y-48753500D02*
X98150500Y-48753500D01*
X97820500Y-63627500D02*
X97820500Y-48177500D01*
X97820500Y-48177500D02*
X127020500Y-48177500D01*
X97820500Y-48177500D02*
X97820500Y-48177500D01*
%TO.C,U3*%
X86610000Y-154759849D02*
X82850000Y-154759849D01*
X86610000Y-147939849D02*
X82850000Y-147939849D01*
X82850000Y-154759849D02*
X82850000Y-153499849D01*
X82850000Y-147939849D02*
X82850000Y-149199849D01*
X88130000Y-154989849D02*
X87650000Y-154989849D01*
X87890000Y-154659849D01*
X88130000Y-154989849D01*
G36*
X88130000Y-154989849D02*
G01*
X87650000Y-154989849D01*
X87890000Y-154659849D01*
X88130000Y-154989849D01*
G37*
%TO.C,C2*%
X85580000Y-142079849D02*
X82840000Y-142079849D01*
X85580000Y-142079849D02*
X85580000Y-147319849D01*
X82840000Y-142079849D02*
X82840000Y-147319849D01*
X85580000Y-147319849D02*
X82840000Y-147319849D01*
%TO.C,C3*%
X97815000Y-146437651D02*
X97815000Y-147237651D01*
X98215000Y-146837651D02*
X97415000Y-146837651D01*
X99580000Y-150847349D02*
X91420000Y-150847349D01*
X99580000Y-150887349D02*
X91420000Y-150887349D01*
X99579000Y-150927349D02*
X91421000Y-150927349D01*
X99578000Y-150967349D02*
X91422000Y-150967349D01*
X99577000Y-151007349D02*
X91423000Y-151007349D01*
X99575000Y-151047349D02*
X91425000Y-151047349D01*
X99573000Y-151087349D02*
X91427000Y-151087349D01*
X99570000Y-151127349D02*
X91430000Y-151127349D01*
X99568000Y-151167349D02*
X91432000Y-151167349D01*
X99564000Y-151207349D02*
X91436000Y-151207349D01*
X99561000Y-151247349D02*
X91439000Y-151247349D01*
X99556000Y-151287349D02*
X91444000Y-151287349D01*
X99552000Y-151327349D02*
X91448000Y-151327349D01*
X99547000Y-151367349D02*
X91453000Y-151367349D01*
X99542000Y-151407349D02*
X91458000Y-151407349D01*
X99536000Y-151447349D02*
X91464000Y-151447349D01*
X99530000Y-151487349D02*
X91470000Y-151487349D01*
X99523000Y-151527349D02*
X91477000Y-151527349D01*
X99517000Y-151567349D02*
X96540000Y-151567349D01*
X94460000Y-151567349D02*
X91483000Y-151567349D01*
X99509000Y-151607349D02*
X96540000Y-151607349D01*
X94460000Y-151607349D02*
X91491000Y-151607349D01*
X99502000Y-151647349D02*
X96540000Y-151647349D01*
X94460000Y-151647349D02*
X91498000Y-151647349D01*
X99493000Y-151687349D02*
X96540000Y-151687349D01*
X94460000Y-151687349D02*
X91507000Y-151687349D01*
X99485000Y-151727349D02*
X96540000Y-151727349D01*
X94460000Y-151727349D02*
X91515000Y-151727349D01*
X99476000Y-151767349D02*
X96540000Y-151767349D01*
X94460000Y-151767349D02*
X91524000Y-151767349D01*
X99467000Y-151807349D02*
X96540000Y-151807349D01*
X94460000Y-151807349D02*
X91533000Y-151807349D01*
X99457000Y-151847349D02*
X96540000Y-151847349D01*
X94460000Y-151847349D02*
X91543000Y-151847349D01*
X99447000Y-151887349D02*
X96540000Y-151887349D01*
X94460000Y-151887349D02*
X91553000Y-151887349D01*
X99436000Y-151927349D02*
X96540000Y-151927349D01*
X94460000Y-151927349D02*
X91564000Y-151927349D01*
X99425000Y-151967349D02*
X96540000Y-151967349D01*
X94460000Y-151967349D02*
X91575000Y-151967349D01*
X99413000Y-152007349D02*
X96540000Y-152007349D01*
X94460000Y-152007349D02*
X91587000Y-152007349D01*
X99401000Y-152047349D02*
X96540000Y-152047349D01*
X94460000Y-152047349D02*
X91599000Y-152047349D01*
X99389000Y-152087349D02*
X96540000Y-152087349D01*
X94460000Y-152087349D02*
X91611000Y-152087349D01*
X99376000Y-152127349D02*
X96540000Y-152127349D01*
X94460000Y-152127349D02*
X91624000Y-152127349D01*
X99363000Y-152167349D02*
X96540000Y-152167349D01*
X94460000Y-152167349D02*
X91637000Y-152167349D01*
X99349000Y-152207349D02*
X96540000Y-152207349D01*
X94460000Y-152207349D02*
X91651000Y-152207349D01*
X99335000Y-152247349D02*
X96540000Y-152247349D01*
X94460000Y-152247349D02*
X91665000Y-152247349D01*
X99320000Y-152287349D02*
X96540000Y-152287349D01*
X94460000Y-152287349D02*
X91680000Y-152287349D01*
X99305000Y-152327349D02*
X96540000Y-152327349D01*
X94460000Y-152327349D02*
X91695000Y-152327349D01*
X99289000Y-152367349D02*
X96540000Y-152367349D01*
X94460000Y-152367349D02*
X91711000Y-152367349D01*
X99273000Y-152407349D02*
X96540000Y-152407349D01*
X94460000Y-152407349D02*
X91727000Y-152407349D01*
X99257000Y-152447349D02*
X96540000Y-152447349D01*
X94460000Y-152447349D02*
X91743000Y-152447349D01*
X99240000Y-152487349D02*
X96540000Y-152487349D01*
X94460000Y-152487349D02*
X91760000Y-152487349D01*
X99222000Y-152527349D02*
X96540000Y-152527349D01*
X94460000Y-152527349D02*
X91778000Y-152527349D01*
X99204000Y-152567349D02*
X96540000Y-152567349D01*
X94460000Y-152567349D02*
X91796000Y-152567349D01*
X99185000Y-152607349D02*
X96540000Y-152607349D01*
X94460000Y-152607349D02*
X91815000Y-152607349D01*
X99166000Y-152647349D02*
X96540000Y-152647349D01*
X94460000Y-152647349D02*
X91834000Y-152647349D01*
X99146000Y-152687349D02*
X96540000Y-152687349D01*
X94460000Y-152687349D02*
X91854000Y-152687349D01*
X99126000Y-152727349D02*
X96540000Y-152727349D01*
X94460000Y-152727349D02*
X91874000Y-152727349D01*
X99105000Y-152767349D02*
X96540000Y-152767349D01*
X94460000Y-152767349D02*
X91895000Y-152767349D01*
X99084000Y-152807349D02*
X96540000Y-152807349D01*
X94460000Y-152807349D02*
X91916000Y-152807349D01*
X99062000Y-152847349D02*
X96540000Y-152847349D01*
X94460000Y-152847349D02*
X91938000Y-152847349D01*
X99039000Y-152887349D02*
X96540000Y-152887349D01*
X94460000Y-152887349D02*
X91961000Y-152887349D01*
X99016000Y-152927349D02*
X96540000Y-152927349D01*
X94460000Y-152927349D02*
X91984000Y-152927349D01*
X98993000Y-152967349D02*
X96540000Y-152967349D01*
X94460000Y-152967349D02*
X92007000Y-152967349D01*
X98968000Y-153007349D02*
X96540000Y-153007349D01*
X94460000Y-153007349D02*
X92032000Y-153007349D01*
X98943000Y-153047349D02*
X96540000Y-153047349D01*
X94460000Y-153047349D02*
X92057000Y-153047349D01*
X98918000Y-153087349D02*
X96540000Y-153087349D01*
X94460000Y-153087349D02*
X92082000Y-153087349D01*
X98892000Y-153127349D02*
X96540000Y-153127349D01*
X94460000Y-153127349D02*
X92108000Y-153127349D01*
X98865000Y-153167349D02*
X96540000Y-153167349D01*
X94460000Y-153167349D02*
X92135000Y-153167349D01*
X98837000Y-153207349D02*
X96540000Y-153207349D01*
X94460000Y-153207349D02*
X92163000Y-153207349D01*
X98809000Y-153247349D02*
X96540000Y-153247349D01*
X94460000Y-153247349D02*
X92191000Y-153247349D01*
X98780000Y-153287349D02*
X96540000Y-153287349D01*
X94460000Y-153287349D02*
X92220000Y-153287349D01*
X98750000Y-153327349D02*
X96540000Y-153327349D01*
X94460000Y-153327349D02*
X92250000Y-153327349D01*
X98719000Y-153367349D02*
X96540000Y-153367349D01*
X94460000Y-153367349D02*
X92281000Y-153367349D01*
X98688000Y-153407349D02*
X96540000Y-153407349D01*
X94460000Y-153407349D02*
X92312000Y-153407349D01*
X98656000Y-153447349D02*
X96540000Y-153447349D01*
X94460000Y-153447349D02*
X92344000Y-153447349D01*
X98623000Y-153487349D02*
X96540000Y-153487349D01*
X94460000Y-153487349D02*
X92377000Y-153487349D01*
X98589000Y-153527349D02*
X96540000Y-153527349D01*
X94460000Y-153527349D02*
X92411000Y-153527349D01*
X98555000Y-153567349D02*
X96540000Y-153567349D01*
X94460000Y-153567349D02*
X92445000Y-153567349D01*
X98519000Y-153607349D02*
X96540000Y-153607349D01*
X94460000Y-153607349D02*
X92481000Y-153607349D01*
X98482000Y-153647349D02*
X92518000Y-153647349D01*
X98445000Y-153687349D02*
X92555000Y-153687349D01*
X98406000Y-153727349D02*
X92594000Y-153727349D01*
X98367000Y-153767349D02*
X92633000Y-153767349D01*
X98326000Y-153807349D02*
X92674000Y-153807349D01*
X98284000Y-153847349D02*
X92716000Y-153847349D01*
X98241000Y-153887349D02*
X92759000Y-153887349D01*
X98196000Y-153927349D02*
X92804000Y-153927349D01*
X98151000Y-153967349D02*
X92849000Y-153967349D01*
X98104000Y-154007349D02*
X92896000Y-154007349D01*
X98055000Y-154047349D02*
X92945000Y-154047349D01*
X98005000Y-154087349D02*
X92995000Y-154087349D01*
X97953000Y-154127349D02*
X93047000Y-154127349D01*
X97900000Y-154167349D02*
X93100000Y-154167349D01*
X97844000Y-154207349D02*
X93156000Y-154207349D01*
X97787000Y-154247349D02*
X93213000Y-154247349D01*
X97727000Y-154287349D02*
X93273000Y-154287349D01*
X97665000Y-154327349D02*
X93335000Y-154327349D01*
X97601000Y-154367349D02*
X93399000Y-154367349D01*
X97534000Y-154407349D02*
X93466000Y-154407349D01*
X97464000Y-154447349D02*
X93536000Y-154447349D01*
X97390000Y-154487349D02*
X93610000Y-154487349D01*
X97313000Y-154527349D02*
X93687000Y-154527349D01*
X97231000Y-154567349D02*
X93769000Y-154567349D01*
X97144000Y-154607349D02*
X93856000Y-154607349D01*
X97052000Y-154647349D02*
X93948000Y-154647349D01*
X96953000Y-154687349D02*
X94047000Y-154687349D01*
X96846000Y-154727349D02*
X94154000Y-154727349D01*
X96728000Y-154767349D02*
X94272000Y-154767349D01*
X96597000Y-154807349D02*
X94403000Y-154807349D01*
X96447000Y-154847349D02*
X94553000Y-154847349D01*
X96268000Y-154887349D02*
X94732000Y-154887349D01*
X96033000Y-154927349D02*
X94967000Y-154927349D01*
X99620000Y-150847349D02*
G75*
G02*
X91380000Y-150847349I-4120000J0D01*
G01*
X91380000Y-150847349D02*
G75*
G02*
X99620000Y-150847349I4120000J0D01*
G01*
%TO.C,C1*%
X91830000Y-142029849D02*
X89090000Y-142029849D01*
X91830000Y-142029849D02*
X91830000Y-147269849D01*
X89090000Y-142029849D02*
X89090000Y-147269849D01*
X91830000Y-147269849D02*
X89090000Y-147269849D01*
%TO.C,A1*%
X106450000Y-86292500D02*
X106450000Y-85667500D01*
X91200000Y-139417500D02*
X114200000Y-139417500D01*
X98700000Y-90667500D02*
X106450000Y-90667500D01*
X98700000Y-85667500D02*
X98700000Y-86292500D01*
X106450000Y-85667500D02*
X98700000Y-85667500D01*
X91200000Y-86292500D02*
X91200000Y-139417500D01*
X98700000Y-86292500D02*
X98700000Y-90667500D01*
X114200000Y-86292500D02*
X106450000Y-86292500D01*
X106450000Y-90667500D02*
X106450000Y-86292500D01*
X114200000Y-139417500D02*
X114200000Y-86292500D01*
X98700000Y-86292500D02*
X91200000Y-86292500D01*
%TO.C,C4*%
X80120000Y-147520000D02*
X77380000Y-147520000D01*
X77380000Y-142280000D02*
X77380000Y-147520000D01*
X80120000Y-142280000D02*
X80120000Y-147520000D01*
X80120000Y-142280000D02*
X77380000Y-142280000D01*
%TO.C,C8*%
X80080000Y-147929849D02*
X77340000Y-147929849D01*
X80080000Y-147929849D02*
X80080000Y-153169849D01*
X77340000Y-147929849D02*
X77340000Y-153169849D01*
X80080000Y-153169849D02*
X77340000Y-153169849D01*
%TO.C,J15*%
X123800000Y-149160000D02*
X126200000Y-149160000D01*
X123800000Y-151560000D02*
X123800000Y-149160000D01*
X126200000Y-149160000D02*
X126200000Y-151560000D01*
X126200000Y-151560000D02*
X123800000Y-151560000D01*
%TO.C,J16*%
X140170000Y-128690000D02*
X137770000Y-128690000D01*
X140170000Y-126290000D02*
X140170000Y-128690000D01*
X137770000Y-128690000D02*
X137770000Y-126290000D01*
X137770000Y-126290000D02*
X140170000Y-126290000D01*
%TO.C,D2*%
X105569939Y-143801397D02*
G75*
G02*
X105414484Y-140570000I1080061J1671397D01*
G01*
X105569951Y-143170910D02*
G75*
G02*
X105570000Y-141089039I1080049J1040910D01*
G01*
X107730000Y-141089039D02*
G75*
G02*
X107730049Y-143170910I-1080000J-1040961D01*
G01*
X107885516Y-140570000D02*
G75*
G02*
X107730061Y-143801397I-1235516J-1560000D01*
G01*
X105570000Y-140570000D02*
X105414000Y-140570000D01*
X107886000Y-140570000D02*
X107730000Y-140570000D01*
%TO.C,R21*%
X110400000Y-152840000D02*
X110400000Y-152070000D01*
X109030000Y-152070000D02*
X111770000Y-152070000D01*
X111770000Y-152070000D02*
X111770000Y-145530000D01*
X109030000Y-145530000D02*
X109030000Y-152070000D01*
X111770000Y-145530000D02*
X109030000Y-145530000D01*
X110400000Y-144760000D02*
X110400000Y-145530000D01*
%TD*%
M02*
